<svg fill="none" height="48" viewBox="0 0 48 48" width="48" xmlns="http://www.w3.org/2000/svg">
    <rect fill="#EF9F27" fill-opacity="0.8" height="48" rx="12" width="48" />
    <path
        d="M23.9624 12.3254C23.9806 12.345 24.0026 12.3606 24.0271 12.3712C24.0516 12.3819 24.0781 12.3874 24.1048 12.3874C24.1315 12.3874 24.158 12.3819 24.1825 12.3712C24.207 12.3606 24.229 12.345 24.2472 12.3254C24.7434 11.7925 25.7816 11.9563 26.1669 12.5113C26.8341 13.4783 26.3713 14.9466 24.3124 15.7446C24.1788 15.7957 24.031 15.7957 23.8974 15.7446C21.8388 14.9466 21.3758 13.4783 22.0462 12.5113C22.4285 11.9563 23.4665 11.7925 23.9624 12.3254ZM28.1083 21.9635H18.1052C18.0266 21.9635 17.9512 21.9322 17.8956 21.8767C17.8401 21.8211 17.8088 21.7457 17.8088 21.6671C17.8088 21.5885 17.8401 21.5131 17.8956 21.4576C17.9512 21.402 18.0266 21.3708 18.1052 21.3708H28.1083C28.1869 21.3708 28.2622 21.402 28.3178 21.4576C28.3734 21.5131 28.4046 21.5885 28.4046 21.6671C28.4046 21.7457 28.3734 21.8211 28.3178 21.8767C28.2622 21.9322 28.1869 21.9635 28.1083 21.9635Z"
        fill="#FFEBE5" />
    <path
        d="M32.0174 22.0729C31.9799 21.9762 31.4268 18.313 30.9951 17.4138C30.8754 17.164 30.7075 16.8141 30.4124 16.7323C30.2939 16.7146 30.173 16.7221 30.0577 16.7545C29.9423 16.7869 29.8351 16.8434 29.7432 16.9202C29.7072 16.9475 29.6625 16.9605 29.6176 16.9569C29.5726 16.9533 29.5306 16.9333 29.4994 16.9007C29.3968 16.7991 29.2696 16.726 29.1302 16.6884C28.9908 16.6507 28.8441 16.6499 28.7043 16.686C28.5671 16.7333 28.4427 16.8117 28.3408 16.915C28.3051 16.942 28.2619 16.9572 28.2171 16.9586C28.1724 16.96 28.1283 16.9474 28.091 16.9227C27.909 16.7458 27.6669 16.6444 27.4133 16.6387C27.1692 16.6326 26.931 16.7144 26.7422 16.8693C26.6793 16.9288 26.5967 16.963 26.5101 16.9655C26.4236 16.968 26.3391 16.9385 26.2729 16.8827C26.09 16.7352 25.8624 16.6544 25.6275 16.6535C25.3619 16.6642 25.1047 16.7499 24.8858 16.9007C24.8521 16.9217 24.8128 16.932 24.7732 16.9301C24.7335 16.9282 24.6954 16.9143 24.6638 16.8902C24.4236 16.7156 24.1317 16.6266 23.8349 16.6374C23.6741 16.6304 23.5135 16.6556 23.3626 16.7115C23.2116 16.7674 23.0734 16.8529 22.9559 16.9629C22.9204 16.9955 22.8741 17.0139 22.8259 17.0146C22.7776 17.0154 22.7308 16.9984 22.6942 16.967C22.4903 16.7755 22.2192 16.6722 21.9396 16.6794C21.7128 16.6796 21.4932 16.7593 21.3192 16.9048C21.2826 16.9332 21.2375 16.9485 21.1912 16.948C21.1449 16.9475 21.1002 16.9313 21.0643 16.902C20.8478 16.7244 20.5748 16.6304 20.2948 16.6374C20.1461 16.6347 19.9984 16.6617 19.8603 16.7169C19.7222 16.7721 19.5965 16.8544 19.4907 16.9588C19.4556 16.9936 19.4087 17.0139 19.3594 17.0158C19.3101 17.0177 19.2618 17.001 19.2242 16.969C19.0588 16.8206 18.8534 16.7241 18.6335 16.6917C18.4048 16.6608 18.1726 16.7131 17.9791 16.839C17.7857 16.9649 17.6438 17.1561 17.5795 17.3777C17.3977 18.0236 17.288 19.3273 17.1705 20.2744C17.057 21.1983 16.925 21.6715 16.7089 22.09C14.4754 26.4174 14.2007 31.4552 14.362 34.9204C14.3754 35.2116 14.5007 35.4864 14.7117 35.6875C14.9227 35.8887 15.2032 36.0006 15.4947 36H32.4722C32.7542 35.9989 33.0256 35.893 33.2339 35.7029C33.4421 35.5128 33.5721 35.252 33.5987 34.9713C33.8511 32.0419 33.524 25.9167 32.0174 22.0729ZM24.6847 26.727L23.7013 27.7104C23.5906 27.8219 23.4589 27.9105 23.3139 27.971C23.1689 28.0315 23.0134 28.0629 22.8562 28.0632C22.6826 28.0619 22.5116 28.0206 22.3564 27.9426L21.9861 28.3129L23.5418 29.8684C23.6498 29.9763 23.7105 30.1228 23.7105 30.2755C23.7105 30.4282 23.6499 30.5747 23.5419 30.6827C23.434 30.7907 23.2875 30.8513 23.1348 30.8514C22.9821 30.8514 22.8356 30.7907 22.7276 30.6828L21.3487 29.3038L19.9857 30.6669C19.9324 30.7212 19.869 30.7645 19.7989 30.7942C19.7289 30.8239 19.6536 30.8393 19.5775 30.8398C19.5014 30.8402 19.426 30.8255 19.3557 30.7965C19.2853 30.7676 19.2214 30.725 19.1676 30.6712C19.1138 30.6174 19.0712 30.5535 19.0423 30.4831C19.0133 30.4128 18.9986 30.3373 18.999 30.2613C18.9994 30.1852 19.0149 30.1099 19.0446 30.0399C19.0743 29.9698 19.1176 29.9064 19.1719 29.8531L20.6924 28.3327L20.3571 27.9958C20.3115 28.0158 20.2645 28.0323 20.2165 28.0453C19.9342 28.1223 19.6362 28.1203 19.355 28.0396C19.0737 27.9588 18.8201 27.8024 18.6217 27.5873C18.4044 27.3606 18.2478 27.0828 18.1662 26.7795C18.1129 26.5746 18.1141 26.3594 18.1697 26.1551C18.2252 25.9508 18.3332 25.7646 18.483 25.615C18.6327 25.4653 18.8189 25.3574 19.0232 25.3019C19.2275 25.2465 19.4428 25.2454 19.6476 25.2988C19.9508 25.3801 20.2286 25.5363 20.4555 25.7531C20.6697 25.9522 20.8255 26.2059 20.9063 26.4869C20.987 26.768 20.9896 27.0657 20.9137 27.3481C20.897 27.4081 20.8749 27.4664 20.8476 27.5223L21.2431 27.9188C21.3035 27.9135 21.3642 27.9125 21.4248 27.916C21.4298 27.9106 21.8694 27.4655 21.8694 27.4655C21.7565 27.2439 21.717 26.9921 21.7568 26.7466C21.7965 26.501 21.9134 26.2745 22.0904 26.0998L23.0741 25.1161C23.1055 25.0836 23.1431 25.0576 23.1847 25.0398C23.2263 25.0219 23.271 25.0125 23.3162 25.0121C23.3615 25.0117 23.4063 25.0203 23.4482 25.0375C23.4901 25.0546 23.5281 25.0799 23.5601 25.1119C23.5921 25.1439 23.6174 25.1819 23.6346 25.2238C23.6517 25.2657 23.6603 25.3106 23.6599 25.3558C23.6595 25.4011 23.6501 25.4458 23.6323 25.4874C23.6144 25.5289 23.5885 25.5665 23.5559 25.598L22.5722 26.5814C22.5248 26.6227 22.4863 26.6734 22.4593 26.7302C22.4322 26.787 22.4171 26.8487 22.4149 26.9116C22.4127 26.9745 22.4235 27.0372 22.4465 27.0957C22.4695 27.1543 22.5044 27.2075 22.5488 27.252C22.5933 27.2965 22.6464 27.3315 22.7049 27.3546C22.7634 27.3777 22.8261 27.3886 22.889 27.3865C22.9519 27.3844 23.0137 27.3694 23.0705 27.3425C23.1274 27.3155 23.1781 27.2771 23.2195 27.2297L24.2029 26.2461C24.2345 26.2144 24.2721 26.1894 24.3135 26.1722C24.3548 26.1551 24.3991 26.1463 24.4439 26.1463C24.4886 26.1463 24.533 26.1552 24.5743 26.1723C24.6156 26.1894 24.6532 26.2145 24.6848 26.2462C24.7165 26.2779 24.7416 26.3154 24.7587 26.3568C24.7758 26.3981 24.7846 26.4424 24.7846 26.4872C24.7846 26.532 24.7758 26.5763 24.7586 26.6176C24.7415 26.6589 24.7164 26.6965 24.6847 26.7281V26.727ZM24.1204 25.6807C24.1843 25.7446 24.2202 25.8312 24.2202 25.9216C24.2202 26.0119 24.1843 26.0986 24.1204 26.1625L23.5012 26.7815C23.4697 26.8141 23.4321 26.84 23.3905 26.8579C23.349 26.8758 23.3043 26.8852 23.259 26.8855C23.2138 26.8859 23.1689 26.8773 23.127 26.8602C23.0851 26.8431 23.0471 26.8178 23.0151 26.7858C22.9831 26.7538 22.9578 26.7157 22.9407 26.6738C22.9235 26.632 22.9149 26.5871 22.9153 26.5418C22.9157 26.4966 22.9251 26.4519 22.943 26.4103C22.9608 26.3687 22.9868 26.3311 23.0193 26.2997L23.6386 25.6807C23.7025 25.6168 23.7892 25.5809 23.8795 25.5809C23.9699 25.5809 24.0565 25.6168 24.1204 25.6807ZM25.3413 20.3714C25.2863 20.4269 25.2208 20.471 25.1486 20.501C25.0765 20.531 24.9991 20.5464 24.921 20.5463H21.761C21.6038 20.5462 21.4531 20.4837 21.3419 20.3725C21.2307 20.2614 21.1682 20.1106 21.1681 19.9534C21.1677 19.939 21.1685 19.9246 21.1704 19.9102C21.1794 19.7682 21.2409 19.6346 21.343 19.5354C21.3974 19.4798 21.4625 19.4356 21.5343 19.4056C21.6061 19.3755 21.6832 19.3602 21.761 19.3605H24.921C25.0708 19.3601 25.2152 19.4167 25.3248 19.5188C25.4345 19.6209 25.5013 19.7608 25.5116 19.9102C25.5135 19.9246 25.5143 19.939 25.5139 19.9534C25.5141 20.031 25.4989 20.1079 25.4693 20.1796C25.4397 20.2514 25.3962 20.3165 25.3413 20.3714ZM32.9197 34.9127C32.9087 35.0238 32.8568 35.1269 32.7741 35.2019C32.6913 35.2769 32.5836 35.3184 32.472 35.3184H28.2145C28.1638 35.3188 28.1149 35.2998 28.0777 35.2654C28.0405 35.231 28.0177 35.1837 28.0142 35.1331C27.8858 33.2584 27.5673 26.4921 29.2847 22.3539C29.4568 21.9441 29.5687 21.5116 29.6169 21.0697C29.6939 20.3253 29.849 18.8282 29.844 17.9827C29.8467 17.9253 29.871 17.8712 29.9122 17.8312C30.0017 17.7217 30.1257 17.646 30.2639 17.6163C30.2903 17.6187 30.3154 17.6286 30.3363 17.645C30.3572 17.6613 30.373 17.6832 30.3818 17.7083C30.7693 18.5152 31.0119 20.124 31.1725 21.1885C31.2127 21.571 31.2832 21.9497 31.3834 22.321C32.7859 25.9012 33.1771 31.934 32.9197 34.9127Z"
        fill="#FFEBE5" />
</svg>
