<svg fill="none" height="100" viewBox="0 0 101 100" width="101" xmlns="http://www.w3.org/2000/svg">
    <rect fill="#FFFAE6" height="100" rx="50" width="100" x="0.5" />
    <path
        d="M71.7999 52.1669C71.7999 53.0307 71.4486 53.8119 70.8807 54.3774C70.3118 54.9429 69.5272 55.2927 68.6607 55.2927H32.3392C30.6062 55.2927 29.2 53.8936 29.2 52.1669C29.2 51.7044 29.3005 51.2662 29.4811 50.8717C29.6372 50.5311 29.8533 50.2211 30.1192 49.9564C30.6881 49.3909 31.4727 49.0412 32.3392 49.0412H68.6608C69.9303 49.0412 71.0242 49.7912 71.5189 50.8717C71.7048 51.2784 71.8006 51.7201 71.7999 52.1669Z"
        fill="#884D00" />
    <path
        d="M71.5189 50.8717C71.3625 51.2119 71.1464 51.5215 70.8808 51.7861C70.3119 52.3516 69.5273 52.7014 68.6608 52.7014H32.3392C31.0707 52.7014 29.9768 51.9513 29.4811 50.8718C29.6371 50.5312 29.8533 50.2212 30.1192 49.9565C30.6881 49.391 31.4727 49.0412 32.3392 49.0412H68.6608C69.9302 49.0411 71.0241 49.7913 71.5189 50.8717Z"
        fill="#AA6100" />
    <path
        d="M74.5 57.8159C74.5 61.8433 72.6274 64.8359 69.6004 66.8209C66.5725 68.8069 62.3902 69.7854 57.7707 69.7854H43.2292C33.9903 69.7854 26.5 65.8707 26.5 57.8159C26.5 57.367 26.6122 56.9414 26.8152 56.5586C26.9869 56.2322 27.224 55.9377 27.5119 55.687C28.1365 55.1419 29.0011 54.8048 29.9544 54.8048H71.0457C72.4382 54.8048 73.6384 55.5237 74.1849 56.5586C74.3878 56.9415 74.5 57.3671 74.5 57.8159Z"
        fill="#FFA733" />
    <path
        d="M74.1848 56.5587C73.533 59.2404 71.8995 61.3293 69.6004 62.8373C66.5725 64.8233 62.3902 65.8017 57.7707 65.8017H43.2292C35.1007 65.8017 28.3267 62.7721 26.8152 56.5586C26.9869 56.2322 27.224 55.9377 27.5119 55.687C28.1365 55.1419 29.0011 54.8049 29.9544 54.8049H71.0457C72.4382 54.8049 73.6383 55.5239 74.1848 56.5587Z"
        fill="#FFB655" />
    <path
        d="M63.8488 47.7295L55.7281 55.8154C55.5283 56.0141 55.3101 56.1934 55.0762 56.3508C53.3568 57.5099 51.0013 57.3322 49.478 55.8154L41.3573 47.7295H63.8488Z"
        fill="#EEBF00" />
    <path
        d="M63.8488 47.7295L55.7281 55.8154C55.5283 56.0141 55.3101 56.1934 55.0762 56.3508C54.4373 56.1343 53.8573 55.7739 53.3812 55.2976L45.7806 47.7295H63.8488Z"
        fill="#FFD422" />
    <path
        d="M73.5886 48.8576C73.5886 49.2812 73.5183 49.7145 73.3661 50.1372C72.7698 51.7938 71.1735 52.437 69.9293 51.5217L68.4373 50.4248C67.3961 49.6582 66.068 49.972 65.3147 51.1633L65.2512 51.2633C64.5281 52.4079 63.2673 52.7479 62.2379 52.0775L58.8967 49.902C58.1258 49.4007 57.2017 49.4551 56.4719 50.0468L53.7943 52.2155C53.0253 52.8383 52.0457 52.8645 51.2562 52.2825L48.2019 50.0283C47.4212 49.4522 46.4533 49.4706 45.6873 50.0769L42.9062 52.2758C42.1597 52.8656 41.221 52.8995 40.4492 52.3661L36.8484 49.8749C36.1399 49.3852 35.2862 49.3715 34.5679 49.8389L31.2092 52.0261C28.9727 52.3127 27.8847 50.6775 27.8847 50.6775C27.349 49.7505 27.2953 48.6516 27.5852 47.7295C27.9296 46.6277 28.764 45.7786 29.849 45.7786H71.1521C72.2157 45.7786 73.0656 46.6151 73.415 47.7247C73.5306 48.0913 73.5892 48.4733 73.5886 48.8576Z"
        fill="#6DC82A" />
    <path
        d="M73.4149 47.7247C73.4003 47.7732 73.3837 47.8208 73.3662 47.8695C72.7699 49.527 71.1736 50.1703 69.9294 49.255L68.4374 48.1571C67.3962 47.3914 66.0681 47.7053 65.3148 48.8955L65.2513 48.9966C64.5282 50.1411 63.2674 50.4812 62.238 49.8107L58.8968 47.6353C58.1259 47.1329 57.2018 47.1883 56.472 47.78L53.7944 49.9487C53.0254 50.5715 52.0457 50.5968 51.2563 50.0148L48.202 47.7606C47.4213 47.1845 46.4534 47.2039 45.6873 47.8092L42.9062 50.0089C42.1597 50.5978 41.221 50.6327 40.4492 50.0993L36.8484 47.608C36.1399 47.1174 35.2862 47.1037 34.5679 47.5721L31.2092 49.7582C28.9727 50.0458 27.8847 48.4096 27.8847 48.4096C27.7607 48.1942 27.6603 47.9662 27.5852 47.7295C27.9296 46.6277 28.764 45.7784 29.849 45.7784H71.1521C72.2156 45.7785 73.0655 46.6151 73.4149 47.7247Z"
        fill="#7ED63E" />
    <path
        d="M72.7552 43.7789C72.7619 44.093 72.7215 44.4064 72.6352 44.7087C72.2576 46.0185 71.0456 46.9765 69.6092 46.9765C63.9691 46.9765 48.9465 46.8502 46.6807 46.925C46.63 46.9269 46.5793 46.9289 46.5295 46.9298C43.6684 47.0376 43.0166 47.4943 43.0166 49.013V54.5697C43.0166 54.8554 42.9004 55.1148 42.7122 55.3023C42.6158 55.3986 42.5013 55.4749 42.3752 55.5269C42.2491 55.5789 42.1139 55.6056 41.9774 55.6054C41.4026 55.6054 40.9371 56.0689 40.9371 56.6412V59.0615C40.9371 59.3073 40.9079 59.5454 40.8512 59.7747C40.5303 61.0981 39.3309 62.0804 37.8906 62.0804H37.8136C36.1761 62.0804 34.851 60.7561 34.8558 59.1257L34.8695 54.7446C34.8698 54.5846 34.9017 54.4262 34.9635 54.2785C35.0253 54.1308 35.1157 53.9967 35.2296 53.8838C35.3434 53.7705 35.4785 53.6807 35.6272 53.6195C35.7759 53.5583 35.9353 53.527 36.0962 53.5272C36.7734 53.5272 37.3228 52.9802 37.3228 52.3058V49.013C37.3228 47.8879 36.4075 46.9765 35.2775 46.9765H31.4503C29.728 46.9765 28.2789 45.623 28.2438 43.9081C28.2086 42.1485 29.6313 40.7105 31.3907 40.7105H69.5468C71.27 40.7105 72.7211 42.064 72.7552 43.7789Z"
        fill="#FF3501" />
    <path
        d="M72.7552 43.7789C72.7619 44.093 72.7215 44.4064 72.6352 44.7087C66.6643 44.7029 52.3969 44.5853 50.1936 44.6572C47.2037 44.7553 46.5295 45.2013 46.5295 46.7462V46.9298C43.6684 47.0376 43.0166 47.4943 43.0166 49.013V54.5697C43.0166 54.8554 42.9004 55.1148 42.7122 55.3023C42.6158 55.3986 42.5013 55.4749 42.3752 55.5269C42.2491 55.5789 42.1139 55.6056 41.9774 55.6054C41.4026 55.6054 40.9371 56.0689 40.9371 56.6412V59.0615C40.9371 59.3073 40.9079 59.5454 40.8512 59.7747C39.4402 59.5483 38.3639 58.327 38.3687 56.8579L38.3824 52.4778C38.3826 52.3178 38.4144 52.1593 38.4762 52.0116C38.538 51.8639 38.6285 51.7297 38.7425 51.6169C38.8563 51.5036 38.9914 51.4138 39.1401 51.3526C39.2888 51.2915 39.4482 51.2601 39.6091 51.2603C40.2863 51.2603 40.8357 50.7133 40.8357 50.039V46.7461C40.8357 45.621 39.9204 44.7096 38.7904 44.7096H34.9632C33.2409 44.7096 31.7918 43.3562 31.7567 41.6413C31.7498 41.3267 31.7906 41.0129 31.8777 40.7105H69.5468C71.27 40.7105 72.7211 42.064 72.7552 43.7789Z"
        fill="#FF5023" />
    <path
        d="M54.7535 37.5255L47.7911 44.461C47.0934 45.1556 46.2708 45.6502 45.3945 45.9427C43.234 46.6695 40.7516 46.1749 39.0322 44.461L32.067 37.5255H54.7535Z"
        fill="#EEBF00" />
    <path
        d="M54.7535 37.5255L47.7911 44.461C47.0934 45.1556 46.2708 45.6502 45.3945 45.9427C44.5191 45.6502 43.6966 45.1556 42.9998 44.461L36.0345 37.5255H54.7535Z"
        fill="#FFD422" />
    <path
        d="M74.5 38.501C74.5 38.5526 74.498 38.6031 74.4951 38.6536C74.4585 39.2846 74.19 39.8802 73.7408 40.3267C73.5003 40.5669 73.2145 40.7572 72.8998 40.887C72.5852 41.0167 72.2478 41.0832 71.9072 41.0827H29.0928C27.6612 41.0826 26.5 39.9264 26.5 38.501C26.5 35.4074 27.9403 33.0784 30.1154 31.3265C31.8806 29.9041 34.1308 28.8615 36.4864 28.0968C43.0771 25.9603 50.5 26.0001 50.5 26.0001C50.5 26.0001 74.5 25.8709 74.5 38.501Z"
        fill="#FFA733" />
    <path
        d="M74.5 38.501C74.5 38.5526 74.498 38.6031 74.4951 38.6536H34.3621C32.9306 38.6536 31.7693 37.4974 31.7693 36.0719C31.7693 32.9783 33.2096 30.6493 35.3847 28.8975C35.734 28.6157 36.102 28.3495 36.4864 28.0968C43.0771 25.9603 50.5 26.0001 50.5 26.0001C50.5 26.0001 74.5 25.8709 74.5 38.501Z"
        fill="#FFB655" />
    <path
        d="M63.4 30.5164C63.8162 30.955 63.7965 31.6464 63.3561 32.0609C62.9157 32.4752 62.2213 32.4556 61.8051 32.0172C61.389 31.5787 60.6229 30.0593 61.0634 29.6448C61.5038 29.2304 62.9838 30.0778 63.4 30.5164ZM57.5842 35.9156C57.8014 36.4788 57.519 37.1108 56.9533 37.3271C56.3876 37.5434 55.7529 37.2621 55.5357 36.6989C55.3185 36.1356 55.1909 34.4403 55.7565 34.224C56.3222 34.0078 57.367 35.3523 57.5842 35.9156ZM51.5972 31.4223C51.5972 32.0257 51.1059 32.5147 50.5 32.5147C49.894 32.5147 49.4028 32.0256 49.4028 31.4223C49.4028 30.8189 49.8941 29.1908 50.5 29.1908C51.106 29.1907 51.5972 30.8189 51.5972 31.4223ZM45.5644 36.6002C45.4129 37.1844 44.8144 37.5356 44.2277 37.3848C43.6411 37.2339 43.2883 36.638 43.4398 36.0538C43.5913 35.4697 44.4758 34.0156 45.0626 34.1664C45.6493 34.3173 45.7159 36.0161 45.5644 36.6002ZM39.5283 31.8415C39.2642 32.3844 38.608 32.6114 38.0626 32.3484C37.5173 32.0853 37.2893 31.432 37.5535 30.8889C37.8177 30.346 38.9726 29.0938 39.518 29.3569C40.0634 29.6201 39.7925 31.2986 39.5283 31.8415Z"
        fill="#FFF5CC" />
</svg>
