<svg fill="none" height="40" viewBox="0 0 40 40" width="40" xmlns="http://www.w3.org/2000/svg">
    <rect fill="#36B37E" height="40" rx="20" width="40" />
    <path clip-rule="evenodd" d="M26.5847 25.4946C26.5847 25.4946 23.3967 30.0446 16.6847 23.3276C9.93371 16.5626 14.5247 13.4176 14.5247 13.4176C14.8157 13.1255 15.2192 12.9744 15.6305 13.0036C16.0417 13.0327 16.4199 13.2393 16.6667 13.5696L17.9587 15.3006C18.3832 15.8672 18.327 16.6596 17.8267 17.1606L16.6887 18.3006C16.6887 18.3006 16.6887 19.3066 18.6987 21.3196C20.7087 23.3326 21.7137 23.3326 21.7137 23.3326L22.8517 22.1926C23.3516 21.6918 24.144 21.6355 24.7097 22.0606L26.4317 23.3546C26.7597 23.6024 26.9646 23.9798 26.994 24.3898C27.0233 24.7999 26.8741 25.2026 26.5847 25.4946Z"
        fill="white"
        fill-rule="evenodd" />
</svg>
