<svg fill="none" height="12" viewBox="0 0 14 12" width="14" xmlns="http://www.w3.org/2000/svg">
    <path clip-rule="evenodd" d="M1.909 0.27301C0.854688 0.27301 0 1.1277 0 2.18201V3.45501H14V2.18201C14 1.67571 13.7989 1.19015 13.4409 0.832143C13.0829 0.474136 12.5973 0.27301 12.091 0.27301H1.909ZM14 4.72701H0V9.81801C0 10.3243 0.201126 10.8099 0.559133 11.1679C0.91714 11.5259 1.4027 11.727 1.909 11.727H12.091C12.5973 11.727 13.0829 11.5259 13.4409 11.1679C13.7989 10.8099 14 10.3243 14 9.81801V4.72701ZM3.094 9.90001H5.28C5.81117 9.89836 6.24135 9.46818 6.243 8.93701C6.2419 8.40562 5.81139 7.97511 5.28 7.97401H3.094C2.56261 7.97511 2.1321 8.40562 2.131 8.93701C2.13265 9.46818 2.56283 9.89836 3.094 9.90001Z"
        fill="#C1C7D0"
        fill-rule="evenodd" />
</svg>
