<svg fill="none" height="14" viewBox="0 0 22 14" width="22" xmlns="http://www.w3.org/2000/svg">
    <path
        d="M0.194835 0.569214H19.9718C20.0235 0.569236 20.073 0.58977 20.1096 0.626304C20.1461 0.662837 20.1666 0.712382 20.1667 0.764049V10.9231C20.1666 10.9747 20.1461 11.0243 20.1096 11.0608C20.073 11.0973 20.0235 11.1179 19.9718 11.1179H0.194876C0.143198 11.1179 0.0936435 11.0973 0.0571019 11.0608C0.0205603 11.0243 2.18141e-05 10.9747 0 10.923V0.764089C2.18141e-05 0.712423 0.020556 0.662879 0.0570899 0.626345C0.0936237 0.589811 0.143168 0.569236 0.194835 0.569214Z"
        fill="#2AB52D" />
    <path clip-rule="evenodd" d="M0.194876 0.569214H0.266529V11.1179H0.194876C0.143242 11.1178 0.0937629 11.0972 0.0572483 11.0607C0.0207337 11.0242 0.000152055 10.9747 0 10.9231V0.764089C0.000152055 0.712456 0.0207337 0.662981 0.0572483 0.626474C0.0937629 0.589968 0.143242 0.569355 0.194876 0.569214Z"
        fill="#009903"
        fill-rule="evenodd" />
    <path clip-rule="evenodd" d="M2.35547 0.569214H17.8112C17.8112 1.87009 18.8658 2.92468 20.1667 2.92468V8.76244C18.8658 8.76244 17.8112 9.81703 17.8112 11.1179H2.35547C2.35547 9.81703 1.30087 8.76244 0 8.76244V2.92472C1.30087 2.92472 2.35547 1.87009 2.35547 0.569214Z"
        fill="#32D736"
        fill-rule="evenodd" />
    <path clip-rule="evenodd" d="M0.266488 8.77762C0.178011 8.76761 0.0890417 8.76257 0 8.76252V2.9248C0.0901327 2.9248 0.179031 2.91953 0.266488 2.9097V8.77762Z"
        fill="#2AB52D"
        fill-rule="evenodd" />
    <path clip-rule="evenodd" d="M3.19489 1.55696C2.86992 2.60884 2.03967 3.43913 0.987793 3.76406V7.92313C2.03967 8.2481 2.86996 9.07835 3.19489 10.1302H16.9719C17.2968 9.07835 18.1271 8.24806 19.1789 7.92313V3.76406C18.1271 3.43909 17.2968 2.60884 16.9719 1.55696H3.19489Z"
        fill="#51E854"
        fill-rule="evenodd" />
    <path
        d="M12.3464 8.10899C13.5976 6.85782 13.5976 4.82927 12.3464 3.5781C11.0952 2.32693 9.06667 2.32693 7.8155 3.5781C6.56432 4.82927 6.56432 6.85782 7.8155 8.10899C9.06667 9.36016 11.0952 9.36016 12.3464 8.10899Z"
        fill="#7DFF7F" />
    <path clip-rule="evenodd" d="M4.9458 5.83412C4.9458 5.76863 4.97182 5.70582 5.01813 5.65951C5.06444 5.6132 5.12725 5.58718 5.19274 5.58718C5.25823 5.58718 5.32104 5.6132 5.36735 5.65951C5.41366 5.70582 5.43968 5.76863 5.43968 5.83412V5.85309C5.43968 5.91859 5.41366 5.98139 5.36735 6.0277C5.32104 6.07401 5.25823 6.10003 5.19274 6.10003C5.12725 6.10003 5.06444 6.07401 5.01813 6.0277C4.97182 5.98139 4.9458 5.91859 4.9458 5.85309V5.83412ZM14.7269 5.83412C14.7269 5.76863 14.7529 5.70582 14.7992 5.65951C14.8456 5.6132 14.9084 5.58718 14.9739 5.58718C15.0394 5.58718 15.1022 5.6132 15.1485 5.65951C15.1948 5.70582 15.2208 5.76863 15.2208 5.83412V5.85309C15.2208 5.91859 15.1948 5.98139 15.1485 6.0277C15.1022 6.07401 15.0394 6.10003 14.9739 6.10003C14.9084 6.10003 14.8456 6.07401 14.7992 6.0277C14.7529 5.98139 14.7269 5.91859 14.7269 5.85309V5.83412Z"
        fill="#2AB52D"
        fill-rule="evenodd" />
    <path clip-rule="evenodd" d="M9.37037 6.6889C9.36433 6.65702 9.35208 6.62665 9.3343 6.59951C9.31653 6.57237 9.29358 6.549 9.26677 6.53073C9.21263 6.49384 9.14605 6.47996 9.08168 6.49215C9.01731 6.50434 8.96041 6.54161 8.92352 6.59575C8.88662 6.64989 8.87274 6.71647 8.88493 6.78084C8.9835 7.29974 9.39992 7.58841 9.83663 7.67801V8.07225C9.83603 8.10505 9.84198 8.13764 9.85412 8.16812C9.86626 8.1986 9.88435 8.22636 9.90733 8.24977C9.93032 8.27318 9.95774 8.29177 9.98799 8.30446C10.0182 8.31716 10.0507 8.3237 10.0835 8.3237C10.1163 8.3237 10.1488 8.31716 10.1791 8.30446C10.2093 8.29177 10.2367 8.27318 10.2597 8.24977C10.2827 8.22636 10.3008 8.1986 10.3129 8.16812C10.3251 8.13764 10.331 8.10505 10.3304 8.07225V7.69711C10.8022 7.63945 11.1614 7.36654 11.2543 6.97522C11.3344 6.63922 11.3307 6.02702 10.4058 5.70406C10.3811 5.6955 10.3556 5.68768 10.3304 5.67953V4.50324C10.4605 4.53711 10.7368 4.6433 10.7915 4.93839C10.816 5.0726 10.945 5.16105 11.079 5.13627C11.1434 5.12435 11.2005 5.08735 11.2376 5.03341C11.2747 4.97947 11.2889 4.913 11.2771 4.84859C11.2013 4.44031 10.8866 4.13061 10.435 4.02015C10.4004 4.01172 10.3655 4.00451 10.3304 3.99854V3.615C10.331 3.5822 10.3251 3.54961 10.3129 3.51913C10.3008 3.48865 10.2827 3.46089 10.2597 3.43748C10.2367 3.41407 10.2093 3.39548 10.1791 3.38279C10.1488 3.37009 10.1163 3.36356 10.0835 3.36356C10.0507 3.36356 10.0182 3.37009 9.98799 3.38279C9.95774 3.39548 9.93032 3.41407 9.90733 3.43748C9.88435 3.46089 9.86626 3.48865 9.85412 3.51913C9.84198 3.54961 9.83603 3.5822 9.83663 3.615V3.99891C9.55088 4.04916 9.29748 4.18609 9.13442 4.39492C8.8183 4.79928 8.86271 5.3737 9.23727 5.73073C9.40519 5.89104 9.62332 5.97907 9.83663 6.04648V7.16944C9.61925 7.10186 9.42042 6.95341 9.37037 6.6889ZM10.7742 6.86089C10.7292 7.04844 10.5387 7.15598 10.3305 7.19648V6.20366C10.8767 6.42689 10.803 6.73952 10.7742 6.86085V6.86089ZM9.57821 5.37349C9.3591 5.16487 9.38519 4.8762 9.52389 4.69878C9.59422 4.6086 9.70621 4.54275 9.83672 4.50575V5.52351C9.73407 5.48338 9.64332 5.43568 9.57825 5.37349H9.57821Z"
        fill="#009903"
        fill-rule="evenodd" />
    <path
        d="M2.02809 2.54376H21.8051C21.8567 2.54378 21.9063 2.56432 21.9428 2.60085C21.9794 2.63739 21.9999 2.68693 21.9999 2.7386V12.8976C21.9999 12.9493 21.9794 12.9988 21.9428 13.0354C21.9063 13.0719 21.8567 13.0924 21.8051 13.0925H2.02813C1.97645 13.0924 1.9269 13.0719 1.89035 13.0353C1.85381 12.9988 1.83327 12.9493 1.83325 12.8976V2.73864C1.83327 2.68697 1.85381 2.63743 1.89034 2.60089C1.92688 2.56436 1.97642 2.54378 2.02809 2.54376Z"
        fill="#2AB52D" />
    <path clip-rule="evenodd" d="M2.02813 2.54376H2.09978V13.0925H2.02813C1.97649 13.0924 1.92701 13.0718 1.8905 13.0353C1.85399 12.9988 1.8334 12.9493 1.83325 12.8977V2.73864C1.8334 2.687 1.85399 2.63753 1.8905 2.60102C1.92701 2.56452 1.97649 2.5439 2.02813 2.54376Z"
        fill="#009903"
        fill-rule="evenodd" />
    <path clip-rule="evenodd" d="M4.18872 2.54376H19.6445C19.6445 3.84464 20.699 4.89923 21.9999 4.89923V10.737C20.699 10.737 19.6445 11.7916 19.6445 13.0925H4.18872C4.18872 11.7916 3.13413 10.737 1.83325 10.737V4.89927C3.13413 4.89927 4.18872 3.84464 4.18872 2.54376Z"
        fill="#32D736"
        fill-rule="evenodd" />
    <path clip-rule="evenodd" d="M2.0995 10.7521C2.01102 10.7421 1.92205 10.7371 1.83301 10.737V4.89929C1.92314 4.89929 2.01204 4.89402 2.0995 4.88419V10.7521Z"
        fill="#2AB52D"
        fill-rule="evenodd" />
    <path clip-rule="evenodd" d="M5.0279 3.53145C4.70293 4.58333 3.87268 5.41362 2.8208 5.73855V9.89761C3.87268 10.2226 4.70297 11.0528 5.0279 12.1047H18.8049C19.1298 11.0528 19.9601 10.2225 21.012 9.89761V5.73855C19.9601 5.41357 19.1298 4.58333 18.8049 3.53145H5.0279Z"
        fill="#51E854"
        fill-rule="evenodd" />
    <path
        d="M14.1796 10.0835C15.4308 8.83231 15.4308 6.80376 14.1796 5.55259C12.9285 4.30141 10.8999 4.30141 9.64875 5.55259C8.39758 6.80376 8.39758 8.83231 9.64875 10.0835C10.8999 11.3346 12.9285 11.3346 14.1796 10.0835Z"
        fill="#7DFF7F" />
    <path clip-rule="evenodd" d="M6.77905 7.80861C6.77905 7.74311 6.80507 7.6803 6.85138 7.63399C6.89769 7.58768 6.9605 7.56167 7.02599 7.56167C7.09148 7.56167 7.15429 7.58768 7.2006 7.63399C7.24691 7.6803 7.27293 7.74311 7.27293 7.80861V7.82758C7.27293 7.89307 7.24691 7.95588 7.2006 8.00219C7.15429 8.0485 7.09148 8.07452 7.02599 8.07452C6.9605 8.07452 6.89769 8.0485 6.85138 8.00219C6.80507 7.95588 6.77905 7.89307 6.77905 7.82758V7.80861ZM16.5602 7.80861C16.5602 7.74311 16.5862 7.6803 16.6325 7.63399C16.6788 7.58768 16.7416 7.56167 16.8071 7.56167C16.8726 7.56167 16.9354 7.58768 16.9817 7.63399C17.028 7.6803 17.0541 7.74311 17.0541 7.80861V7.82758C17.0541 7.89307 17.028 7.95588 16.9817 8.00219C16.9354 8.0485 16.8726 8.07452 16.8071 8.07452C16.7416 8.07452 16.6788 8.0485 16.6325 8.00219C16.5862 7.95588 16.5602 7.89307 16.5602 7.82758V7.80861Z"
        fill="#2AB52D"
        fill-rule="evenodd" />
    <path clip-rule="evenodd" d="M11.2036 8.66338C11.1976 8.6315 11.1853 8.60113 11.1676 8.57399C11.1498 8.54685 11.1268 8.52348 11.1 8.50521C11.0459 8.46831 10.9793 8.45444 10.9149 8.46663C10.8506 8.47882 10.7937 8.51609 10.7568 8.57023C10.7199 8.62437 10.706 8.69095 10.7182 8.75532C10.8168 9.27422 11.2332 9.56289 11.6699 9.65249V10.0467C11.6693 10.0795 11.6752 10.1121 11.6874 10.1426C11.6995 10.1731 11.7176 10.2008 11.7406 10.2242C11.7636 10.2477 11.791 10.2663 11.8212 10.2789C11.8515 10.2916 11.884 10.2982 11.9168 10.2982C11.9496 10.2982 11.9821 10.2916 12.0123 10.2789C12.0426 10.2663 12.07 10.2477 12.093 10.2242C12.116 10.2008 12.1341 10.1731 12.1462 10.1426C12.1583 10.1121 12.1643 10.0795 12.1637 10.0467V9.67159C12.6355 9.61393 12.9946 9.34102 13.0876 8.9497C13.1676 8.6137 13.1639 8.0015 12.2391 7.67854C12.2143 7.66998 12.1888 7.66216 12.1637 7.65401V6.47772C12.2938 6.51159 12.57 6.61778 12.6248 6.91287C12.6493 7.04708 12.7782 7.13553 12.9123 7.11075C12.9767 7.09883 13.0337 7.06183 13.0708 7.00789C13.108 6.95395 13.1222 6.88748 13.1104 6.82307C13.0346 6.41479 12.7198 6.10509 12.2683 5.99463C12.2337 5.9862 12.1988 5.97899 12.1637 5.97302V5.58948C12.1643 5.55668 12.1583 5.52409 12.1462 5.49361C12.1341 5.46313 12.116 5.43537 12.093 5.41196C12.07 5.38855 12.0426 5.36996 12.0123 5.35727C11.9821 5.34457 11.9496 5.33804 11.9168 5.33804C11.884 5.33804 11.8515 5.34457 11.8212 5.35727C11.791 5.36996 11.7636 5.38855 11.7406 5.41196C11.7176 5.43537 11.6995 5.46313 11.6874 5.49361C11.6752 5.52409 11.6693 5.55668 11.6699 5.58948V5.97339C11.3841 6.02364 11.1307 6.16057 10.9677 6.3694C10.6516 6.77376 10.696 7.34818 11.0705 7.70521C11.2384 7.86552 11.4566 7.95355 11.6699 8.02096V9.14392C11.4525 9.07634 11.2537 8.92789 11.2036 8.66338ZM12.6074 8.83537C12.5624 9.02292 12.3719 9.13046 12.1637 9.17096V8.17814C12.7099 8.40137 12.6363 8.714 12.6074 8.83533V8.83537ZM11.4115 7.34797C11.1923 7.13935 11.2184 6.85068 11.3571 6.67326C11.4275 6.58308 11.5395 6.51723 11.67 6.48023V7.49799C11.5673 7.45786 11.4766 7.41016 11.4115 7.34797H11.4115Z"
        fill="#009903"
        fill-rule="evenodd" />
</svg>
