<svg fill="none" height="14" viewBox="0 0 14 14" width="14" xmlns="http://www.w3.org/2000/svg">
    <path clip-rule="evenodd" d="M7 0C3.13401 0 0 3.13401 0 7C0 10.866 3.13401 14 7 14C10.866 14 14 10.866 14 7C14 5.14348 13.2625 3.36301 11.9497 2.05025C10.637 0.737498 8.85652 0 7 0ZM10.15 8.4H7.006C6.52828 8.3869 6.1441 8.00272 6.131 7.525V3.509C6.131 3.02575 6.52275 2.634 7.006 2.634C7.48925 2.634 7.881 3.02575 7.881 3.509V6.646H10.15C10.6332 6.646 11.025 7.03775 11.025 7.521C11.025 8.00425 10.6332 8.396 10.15 8.396V8.4Z"
        fill="#C1C7D0"
        fill-rule="evenodd" />
</svg>
