<svg fill="none" height="14" viewBox="0 0 14 14" width="14" xmlns="http://www.w3.org/2000/svg">
    <path clip-rule="evenodd" d="M4.6239 5.1V1C4.6239 0.447715 4.17618 0 3.6239 0H3.2369C2.68461 0 2.2369 0.447715 2.2369 1V5.1C1.03881 5.58376 0.254395 6.74644 0.254395 8.0385C0.254395 9.33056 1.03881 10.4932 2.2369 10.977V13C2.2369 13.5523 2.68461 14 3.2369 14H3.6249C4.17718 14 4.6249 13.5523 4.6249 13V10.976C5.82298 10.4922 6.6074 9.32956 6.6074 8.0375C6.6074 6.74544 5.82298 5.58276 4.6249 5.099L4.6239 5.1ZM3.4299 9.213C2.78041 9.21245 2.25434 8.68549 2.2549 8.036C2.25545 7.38651 2.78241 6.86045 3.4319 6.861C4.08138 6.86155 4.60745 7.38851 4.6069 8.038C4.60579 8.68726 4.07915 9.213 3.4299 9.213ZM11.6779 3.023V1C11.6779 0.447715 11.2302 0 10.6779 0H10.2899C9.73761 0 9.2899 0.447715 9.2899 1V3.024C8.09181 3.50776 7.30739 4.67044 7.30739 5.9625C7.30739 7.25456 8.09181 8.41724 9.2899 8.901V13C9.2899 13.5523 9.73761 14 10.2899 14H10.6779C11.2302 14 11.6779 13.5523 11.6779 13V8.9C12.876 8.41624 13.6604 7.25356 13.6604 5.9615C13.6604 4.66944 12.876 3.50676 11.6779 3.023ZM10.4839 7.138C9.83441 7.138 9.3079 6.61149 9.3079 5.962C9.3079 5.31251 9.83441 4.786 10.4839 4.786C11.1334 4.786 11.6599 5.31251 11.6599 5.962C11.6593 6.61126 11.1332 7.13745 10.4839 7.138Z"
        fill="#C1C7D0"
        fill-rule="evenodd" />
</svg>
