<svg fill="none" height="24" viewBox="0 0 24 24" width="24" xmlns="http://www.w3.org/2000/svg">
    <path
        d="M5.625 12.0001C5.625 10.811 5.95261 9.69709 6.52177 8.74332V4.69763H2.47608C0.870375 6.78301 0 9.32452 0 12.0001C0 14.6756 0.870375 17.2171 2.47608 19.3025H6.52177V15.2568C5.95261 14.303 5.625 13.1891 5.625 12.0001Z"
        fill="#FBBD00" />
    <path
        d="M12 18.375L9.1875 21.1875L12 24C14.6756 24 17.217 23.1296 19.3024 21.5239V17.4825H15.261C14.2989 18.0538 13.1804 18.375 12 18.375Z"
        fill="#0F9D58" />
    <path
        d="M6.52176 15.2567L2.47607 19.3024C2.79398 19.7153 3.14015 20.1107 3.51473 20.4853C5.78123 22.7517 8.79468 24 12 24V18.375C9.67387 18.375 7.63514 17.1225 6.52176 15.2567Z"
        fill="#31AA52" />
    <path
        d="M24 11.9999C24 11.2699 23.9339 10.5384 23.8035 9.82603L23.698 9.24951H12V14.8745H17.6931C17.1402 15.9742 16.2902 16.8715 15.261 17.4825L19.3024 21.5239C19.7153 21.206 20.1106 20.8598 20.4853 20.4853C22.7518 18.2187 24 15.2053 24 11.9999Z"
        fill="#3C79E6" />
    <path
        d="M16.5078 7.49217L17.005 7.98933L20.9825 4.01189L20.4853 3.51473C18.2188 1.24823 15.2054 0 12 0L9.1875 2.8125L12 5.625C13.7028 5.625 15.3037 6.28809 16.5078 7.49217Z"
        fill="#CF2D48" />
    <path
        d="M12 5.625V0C8.79473 0 5.78128 1.24823 3.51473 3.51469C3.14015 3.88927 2.79398 4.28466 2.47607 4.69758L6.52176 8.74327C7.63518 6.8775 9.67392 5.625 12 5.625Z"
        fill="#EB4132" />
</svg>
