<svg fill="none" height="160" viewBox="0 0 178 160" width="178" xmlns="http://www.w3.org/2000/svg">
    <path clip-rule="evenodd" d="M89.5164 160C133.699 160 169.516 124.183 169.516 80C169.516 35.8172 133.699 0 89.5164 0C45.3336 0 9.51636 35.8172 9.51636 80C9.51636 124.183 45.3336 160 89.5164 160Z"
        fill="#EF9F27"
        fill-opacity="0.2" fill-rule="evenodd" />
    <path
        d="M108.432 51.0562H104.463C104.396 50.7037 104.315 50.3584 104.226 50.0147L111.306 46.4755C112.035 46.1111 112.329 45.2245 111.966 44.4957C111.6 43.7669 110.718 43.4748 109.986 43.8363L103.232 47.2117C100.656 41.6529 95.037 37.7788 88.5163 37.7788C80.5764 37.7788 73.9628 43.5147 72.5701 51.0562H68.6002C66.5672 51.0562 64.912 52.71 64.912 54.7444C64.912 55.4673 65.1775 56.1651 65.657 56.7051L70.8131 62.5058V63.5961C70.8131 65.6304 72.4683 67.2842 74.5012 67.2842H102.531C104.566 67.2842 106.22 65.6304 106.22 63.5961V62.5058L111.374 56.7051C111.855 56.1651 112.121 55.4673 112.121 54.7444C112.121 52.71 110.467 51.0562 108.432 51.0562ZM102.972 51.0562H102.143L102.878 50.6874C102.906 50.8114 102.946 50.9308 102.972 51.0562ZM88.5163 39.2541C94.4602 39.2541 99.5809 42.7947 101.915 47.8711L100.6 48.5276C98.5113 43.9322 93.8937 40.7294 88.5163 40.7294C82.1992 40.7294 76.9222 45.1448 75.5782 51.0562H74.0616C75.4321 44.3305 81.3922 39.2541 88.5163 39.2541ZM95.2672 51.0562C94.1268 48.4553 91.5333 46.6304 88.5163 46.6304C85.4994 46.6304 82.9073 48.4553 81.7655 51.0562H80.181C81.3996 47.6248 84.6703 45.1552 88.5163 45.1552C92.1529 45.1552 95.2849 47.3622 96.6421 50.506L95.5445 51.0562H95.2672ZM88.5163 49.581C87.2137 49.581 86.0526 50.1578 85.2412 51.0562H83.4355C84.4593 49.3022 86.3418 48.1057 88.5163 48.1057C90.6894 48.1057 92.5733 49.3022 93.5957 51.0562H91.7885C90.98 50.1578 89.819 49.581 88.5163 49.581ZM88.5163 43.6799C83.8471 43.6799 79.8978 46.7957 78.6246 51.0562H77.1021C78.4181 45.9754 83.0283 42.2046 88.5163 42.2046C93.305 42.2046 97.4314 45.0784 99.2784 49.1886L97.961 49.8465C96.3559 46.2218 92.7282 43.6799 88.5163 43.6799ZM103.269 61.3831V63.5961C103.269 64.0032 102.937 64.3337 102.531 64.3337H74.5012C74.0941 64.3337 73.7636 64.0032 73.7636 63.5961V61.3831L67.8625 54.7444C67.8625 54.3372 68.193 54.0068 68.6002 54.0068H72.2883H73.7636H75.2389H76.7142H78.1894H79.6647H81.14H82.6152H84.0905H92.9421H94.4174H95.8927H97.3679H98.8432H100.318H101.794H103.269H104.744H108.432C108.838 54.0068 109.17 54.3372 109.17 54.7444L103.269 61.3831Z"
        fill="#EF9F27" />
    <path
        d="M76.6803 37.3538C76.6847 37.3626 76.6876 37.3715 76.6921 37.3803H76.695C76.8175 37.6164 77.0624 37.7786 77.3486 37.7786C77.7572 37.7786 78.0891 37.4452 78.0891 37.0366C78.0891 36.9731 78.0788 36.9112 78.0626 36.8522C78.0655 36.8418 78.0655 36.833 78.0626 36.8227C77.5094 35.5215 78.0346 34.0934 78.6807 32.5562C79.3785 30.895 80.1265 29.0509 79.3033 27.1759C79.1985 26.9059 78.9374 26.7141 78.6306 26.7141C78.2308 26.7141 77.9077 27.0387 77.9077 27.437C77.9077 27.5255 77.9254 27.6081 77.9549 27.6863C77.9549 27.6893 77.9549 27.6922 77.9564 27.6952C77.9578 27.6996 77.9593 27.704 77.9608 27.7084C77.9637 27.7143 77.9652 27.7202 77.9682 27.7261C78.5642 29.0672 77.9873 30.4421 77.3368 31.9941C76.6493 33.6302 75.888 35.4433 76.6537 37.2918C76.6626 37.3139 76.6699 37.3331 76.6803 37.3538Z"
        fill="#EF9F27" />
    <path
        d="M94.6446 37.1384C94.6505 37.1473 94.6534 37.1561 94.6564 37.165H94.6593C94.7832 37.401 95.0281 37.5648 95.3129 37.5648C95.7215 37.5648 96.0564 37.2314 96.0564 36.8227C96.0564 36.7593 96.0446 36.6973 96.0299 36.6383C96.0328 36.628 96.0328 36.6191 96.0269 36.6088C95.4766 35.3076 96.0003 33.8795 96.6465 32.3423C97.3443 30.6812 98.0923 28.8371 97.2691 26.962C97.1629 26.6906 96.9032 26.5002 96.5949 26.5002C96.1966 26.5002 95.872 26.8248 95.872 27.2231C95.872 27.3116 95.8927 27.3943 95.9207 27.4724C95.9207 27.4754 95.9207 27.4783 95.9207 27.4813C95.9236 27.4857 95.9236 27.4902 95.9266 27.4946C95.9295 27.5005 95.9325 27.5064 95.9325 27.5123C96.5285 28.8533 95.9531 30.2283 95.3011 31.7802C94.6151 33.4163 93.8553 35.2309 94.621 37.0794C94.6283 37.0986 94.6357 37.1192 94.6446 37.1384Z"
        fill="#EF9F27" />
    <path
        d="M87.069 30.7151C87.0735 30.7239 87.0764 30.7328 87.0808 30.7416H87.0838C87.2077 30.9777 87.4526 31.1414 87.7373 31.1414C88.146 31.1414 88.4779 30.808 88.4779 30.3994C88.4779 30.3359 88.4676 30.274 88.4514 30.215C88.4543 30.2046 88.4543 30.1958 88.4514 30.1855C87.8981 28.8843 88.4233 27.4562 89.0695 25.919C89.7673 24.2578 90.5153 22.4137 89.6921 20.5387C89.5859 20.2672 89.3262 20.0754 89.0179 20.0754C88.6196 20.0754 88.295 20.4 88.295 20.7983C88.295 20.8868 88.3127 20.9695 88.3422 21.0476C88.3422 21.0506 88.3422 21.0535 88.3437 21.0565C88.3452 21.0609 88.3466 21.0653 88.3481 21.0698C88.3496 21.0757 88.3525 21.0816 88.354 21.0875C88.95 22.4285 88.3732 23.8034 87.7226 25.3554C87.0351 26.9915 86.2739 28.8061 87.041 30.6546C87.0513 30.6753 87.0587 30.6944 87.069 30.7151Z"
        fill="#EF9F27" />
    <path
        d="M31.4899 88.7861H19.107C11.9169 88.7861 9.45363 93.3798 9.45363 100.237C9.45363 108.759 16.8434 118.612 30.8907 118.612C34.6855 118.612 36.2833 120.343 36.2833 122.606C36.2833 125.802 33.82 127 29.2264 127C16.1777 127 0 118.212 0 99.7044C0 88.2535 7.12351 80.7972 16.7103 80.7972H31.4899C33.8866 80.7972 35.8173 82.0621 35.8173 84.7916C35.8173 87.5212 33.8866 88.7861 31.4899 88.7861ZM84.6865 103.699C84.6865 118.612 74.434 127 63.0497 127C51.6654 127 41.4129 118.612 41.4129 103.699C41.4129 88.7861 51.6654 80.3977 63.0497 80.3977C74.434 80.3977 84.6865 88.7861 84.6865 103.699ZM75.2329 103.699C75.2329 94.911 70.3064 87.9872 63.0497 87.9872C55.793 87.9872 50.8665 94.911 50.8665 103.699C50.8665 112.487 55.793 119.411 63.0497 119.411C70.3064 119.411 75.2329 112.487 75.2329 103.699ZM133.955 103.699C133.955 118.612 123.703 127 112.318 127C100.934 127 90.6816 118.612 90.6816 103.699C90.6816 88.7861 100.934 80.3977 112.318 80.3977C123.703 80.3977 133.955 88.7861 133.955 103.699ZM124.502 103.699C124.502 94.911 119.575 87.9872 112.318 87.9872C105.062 87.9872 100.135 94.911 100.135 103.699C100.135 112.487 105.062 119.411 112.318 119.411C119.575 119.411 124.502 112.487 124.502 103.699ZM142.147 122.207V85.1911C142.147 82.5947 143.479 80.5974 146.342 80.5974C149.204 80.5974 150.536 82.5947 150.536 85.1911V94.3784C152.466 94.6447 154.397 94.8444 156.328 95.1107C160.189 93.5795 164.65 90.0511 165.848 84.6585C166.447 81.9289 167.779 80.5974 170.242 80.5974C172.572 80.5974 174.236 82.3284 174.236 84.9248C174.236 89.4519 168.777 96.642 163.984 98.3729C172.239 102.7 177.033 112.953 177.033 121.541C177.033 124.603 175.834 126.8 172.838 126.8C169.909 126.8 168.844 124.737 168.644 121.674C167.845 109.624 161.454 102.168 150.536 101.569V122.207C150.536 124.803 149.204 126.8 146.342 126.8C143.479 126.8 142.147 124.803 142.147 122.207Z"
        fill="#EF9F27" />
</svg>
