<svg fill="none" height="40" viewBox="0 0 40 40" width="40" xmlns="http://www.w3.org/2000/svg">
    <rect fill="#EF9F27" height="40" rx="20" width="40" />
    <path clip-rule="evenodd" d="M21.938 14.938H18.062C15.2663 14.938 13 17.2043 13 20C13 22.7957 15.2663 25.062 18.062 25.062H27V20C27 17.2043 24.7337 14.938 21.938 14.938ZM16.808 20.9C16.3109 20.9 15.908 20.497 15.908 20C15.908 19.5029 16.3109 19.1 16.808 19.1C17.3051 19.1 17.708 19.5029 17.708 20C17.708 20.2387 17.6132 20.4676 17.4444 20.6364C17.2756 20.8052 17.0467 20.9 16.808 20.9ZM20 20.9C19.5029 20.9 19.1 20.497 19.1 20C19.1 19.5029 19.5029 19.1 20 19.1C20.4971 19.1 20.9 19.5029 20.9 20C20.9 20.497 20.4971 20.9 20 20.9ZM23.192 20.9C22.6949 20.9 22.292 20.497 22.292 20C22.292 19.5029 22.6949 19.1 23.192 19.1C23.6891 19.1 24.092 19.5029 24.092 20C24.092 20.497 23.6891 20.9 23.192 20.9Z"
        fill="white"
        fill-rule="evenodd" />
</svg>
