<svg fill="none" height="15" viewBox="0 0 12 15" width="12" xmlns="http://www.w3.org/2000/svg">
    <path clip-rule="evenodd" d="M4.38102 13.762C2.03422 13.0401 0.494135 10.7965 0.664016 8.34702C0.685376 7.01673 1.24841 5.7527 2.22302 4.84702C2.37384 4.70694 2.58081 4.64423 2.78402 4.67702C3.14802 4.73602 3.02602 5.37702 2.96702 5.74202C2.87131 6.20659 2.96695 6.69014 3.23232 7.08329C3.49769 7.47645 3.91036 7.74601 4.37702 7.83102C6.37702 7.83102 3.00502 3.83902 6.50502 0.099016C6.59664 0.00703327 6.73622 -0.0173667 6.85362 0.0380772C6.97102 0.0935212 7.04085 0.21682 7.02802 0.346016C6.94802 2.34602 9.51402 4.39802 10.34 5.54602C11.6822 7.41799 11.6755 9.93887 10.3234 11.8037C8.97136 13.6685 6.5775 14.4586 4.38102 13.765V13.762Z"
        fill="#C1C7D0"
        fill-rule="evenodd" />
</svg>
