<svg fill="none" height="81" viewBox="0 0 81 81" width="81" xmlns="http://www.w3.org/2000/svg">
    <circle cx="40" cy="41" fill="#EF9F27" r="30" />
    <path d="M35.1667 29.3333L46.8334 41L35.1667 52.6666" stroke="white" stroke-linecap="round"
        stroke-linejoin="round" stroke-width="3" />
    <mask fill="white" id="path-3-inside-1_3_3611">
        <path
            d="M77.998 33.8789C79.5428 33.7168 80.6744 32.33 80.3969 30.8017C79.157 23.971 76.0406 17.5986 71.3714 12.4115C66.7022 7.22434 60.6914 3.45726 54.0283 1.50824C52.5375 1.07216 51.0398 2.05219 50.7166 3.5715C50.3935 5.09081 51.3683 6.57235 52.8532 7.02813C58.3557 8.71704 63.3165 11.8708 67.1907 16.1747C71.0649 20.4787 73.6814 25.7427 74.7843 31.3918C75.0819 32.9164 76.4532 34.0411 77.998 33.8789Z" />
    </mask>
    <path
        d="M77.998 33.8789C79.5428 33.7168 80.6744 32.33 80.3969 30.8017C79.157 23.971 76.0406 17.5986 71.3714 12.4115C66.7022 7.22434 60.6914 3.45726 54.0283 1.50824C52.5375 1.07216 51.0398 2.05219 50.7166 3.5715C50.3935 5.09081 51.3683 6.57235 52.8532 7.02813C58.3557 8.71704 63.3165 11.8708 67.1907 16.1747C71.0649 20.4787 73.6814 25.7427 74.7843 31.3918C75.0819 32.9164 76.4532 34.0411 77.998 33.8789Z"
        mask="url(#path-3-inside-1_3_3611)" stroke="#EF9F27" stroke-width="10" />
    <mask fill="white" id="path-4-inside-2_3_3611">
        <path
            d="M3.00258 47.1279C1.4578 47.2903 0.326486 48.6773 0.604226 50.2056C1.84556 57.036 4.96322 63.4078 9.63345 68.594C14.3037 73.7802 20.3152 77.5461 26.9787 79.4938C28.4696 79.9296 29.9671 78.9492 30.29 77.4299C30.6128 75.9105 29.6377 74.4291 28.1527 73.9737C22.6499 72.2858 17.6885 69.1331 13.8134 64.8299C9.93836 60.5268 7.32081 55.2633 6.21675 49.6143C5.91881 48.0899 4.54737 46.9654 3.00258 47.1279Z" />
    </mask>
    <path
        d="M3.00258 47.1279C1.4578 47.2903 0.326486 48.6773 0.604226 50.2056C1.84556 57.036 4.96322 63.4078 9.63345 68.594C14.3037 73.7802 20.3152 77.5461 26.9787 79.4938C28.4696 79.9296 29.9671 78.9492 30.29 77.4299C30.6128 75.9105 29.6377 74.4291 28.1527 73.9737C22.6499 72.2858 17.6885 69.1331 13.8134 64.8299C9.93836 60.5268 7.32081 55.2633 6.21675 49.6143C5.91881 48.0899 4.54737 46.9654 3.00258 47.1279Z"
        mask="url(#path-4-inside-2_3_3611)" stroke="white" stroke-opacity="0.5" stroke-width="10" />
    <mask fill="white" id="path-5-inside-3_3_3611">
        <path
            d="M77.9988 47.1141C79.5436 47.276 80.6755 48.6625 80.3984 50.1909C79.1598 57.0218 76.0447 63.3949 71.3765 68.5829C66.7083 73.771 60.6983 77.5393 54.0356 79.4896C52.5448 79.926 51.0469 78.9463 50.7235 77.427C50.4 75.9078 51.3745 74.426 52.8594 73.97C58.3615 72.28 63.3217 69.1252 67.195 64.8205C71.0684 60.5158 73.6838 55.2513 74.7856 49.6019C75.0829 48.0773 76.4539 46.9523 77.9988 47.1141Z" />
    </mask>
    <path
        d="M77.9988 47.1141C79.5436 47.276 80.6755 48.6625 80.3984 50.1909C79.1598 57.0218 76.0447 63.3949 71.3765 68.5829C66.7083 73.771 60.6983 77.5393 54.0356 79.4896C52.5448 79.926 51.0469 78.9463 50.7235 77.427C50.4 75.9078 51.3745 74.426 52.8594 73.97C58.3615 72.28 63.3217 69.1252 67.195 64.8205C71.0684 60.5158 73.6838 55.2513 74.7856 49.6019C75.0829 48.0773 76.4539 46.9523 77.9988 47.1141Z"
        mask="url(#path-5-inside-3_3_3611)" stroke="white" stroke-opacity="0.5" stroke-width="10" />
    <mask fill="white" id="path-6-inside-4_3_3611">
        <path
            d="M3.00202 33.8789C1.45721 33.7168 0.325615 32.33 0.60305 30.8017C1.84302 23.971 4.9594 17.5986 9.6286 12.4115C14.2978 7.22434 20.3086 3.45726 26.9717 1.50824C28.4625 1.07216 29.9602 2.05219 30.2834 3.5715C30.6065 5.09081 29.6317 6.57235 28.1468 7.02813C22.6443 8.71704 17.6835 11.8708 13.8093 16.1747C9.93512 20.4787 7.31863 25.7427 6.21569 31.3918C5.91805 32.9164 4.54684 34.0411 3.00202 33.8789Z" />
    </mask>
    <path
        d="M3.00202 33.8789C1.45721 33.7168 0.325615 32.33 0.60305 30.8017C1.84302 23.971 4.9594 17.5986 9.6286 12.4115C14.2978 7.22434 20.3086 3.45726 26.9717 1.50824C28.4625 1.07216 29.9602 2.05219 30.2834 3.5715C30.6065 5.09081 29.6317 6.57235 28.1468 7.02813C22.6443 8.71704 17.6835 11.8708 13.8093 16.1747C9.93512 20.4787 7.31863 25.7427 6.21569 31.3918C5.91805 32.9164 4.54684 34.0411 3.00202 33.8789Z"
        mask="url(#path-6-inside-4_3_3611)" stroke="white" stroke-opacity="0.5" stroke-width="10" />
</svg>
