<svg fill="none" height="21" viewBox="0 0 17 21" width="17" xmlns="http://www.w3.org/2000/svg">
    <path clip-rule="evenodd" d="M13.7783 1.82555e-06H2.33333C1.04467 1.82555e-06 1.2503e-06 1.04467 1.2503e-06 2.33334V17.6765C-0.00043388 17.965 0.112722 18.2421 0.315001 18.4479L1.92646 20.0958C2.12605 20.3009 2.40007 20.4166 2.68625 20.4166C2.97243 20.4166 3.24645 20.3009 3.44604 20.0958L4.61271 18.9029C4.8123 18.6978 5.08632 18.5821 5.3725 18.5821C5.65868 18.5821 5.9327 18.6978 6.13229 18.9029L7.29896 20.0958C7.499 20.3006 7.77319 20.4161 8.05948 20.4161C8.34577 20.4161 8.61996 20.3006 8.82 20.0958L9.98667 18.9029C10.1863 18.6978 10.4603 18.5821 10.7465 18.5821C11.0326 18.5821 11.3067 18.6978 11.5063 18.9029L12.6729 20.0958C12.8725 20.3009 13.1465 20.4166 13.4327 20.4166C13.7189 20.4166 13.9929 20.3009 14.1925 20.0958L15.7967 18.4523C16.0007 18.2439 16.1148 17.9637 16.1146 17.6721V3.02459V3.00709V2.33334C16.1146 1.71399 15.8684 1.12006 15.4301 0.682387C14.9919 0.244718 14.3977 -0.000772355 13.7783 1.82555e-06Z"
        fill="#C1C7D0"
        fill-rule="evenodd" />
    <path clip-rule="evenodd" d="M10.1922 5.10416H4.11826C3.52547 5.10416 3.04492 5.5847 3.04492 6.17749C3.04492 6.77028 3.52547 7.25082 4.11826 7.25082H10.1922C10.785 7.25082 11.2655 6.77028 11.2655 6.17749C11.2655 5.5847 10.785 5.10416 10.1922 5.10416ZM7.22305 9.02416H4.11826C3.52547 9.02416 3.04492 9.5047 3.04492 10.0975C3.04492 10.6903 3.52547 11.1708 4.11826 11.1708H7.22305C7.60651 11.1708 7.96085 10.9662 8.15258 10.6342C8.34431 10.3021 8.34431 9.89291 8.15258 9.56082C7.96085 9.22873 7.60651 9.02416 7.22305 9.02416Z"
        fill="white"
        fill-rule="evenodd" />
</svg>
