<svg fill="none" height="20" viewBox="0 0 16 20" width="16" xmlns="http://www.w3.org/2000/svg">
    <path
        d="M14.4685 5.16719C14.5014 4.88859 14.5179 4.60816 14.5179 4.32746C14.5179 1.9375 12.662 0 10.3727 0H3.44526C3.00951 0 2.63747 0.328516 2.56518 0.777109L0.0125945 16.616C-0.0790022 17.1843 0.340667 17.7023 0.892679 17.7023H3.42622C3.86198 17.7023 4.24101 17.374 4.31326 16.9254L4.32512 16.8517L3.97209 19.0426C3.89142 19.5435 4.26129 20 4.74782 20H6.96429C7.34838 20 7.6763 19.7104 7.73998 19.315L8.36967 15.408C8.47822 14.7345 9.03674 14.2413 9.6909 14.2413H10.2732C13.436 14.2413 16 11.5646 16 8.26266C16 6.98496 15.395 5.85555 14.4685 5.16719Z"
        fill="#002987" />
    <path
        d="M14.4685 5.16719C14.0721 8.53355 11.3238 11.1402 7.99214 11.1402H6.059C5.62268 11.1402 5.24585 11.4436 5.12765 11.8726L3.97209 19.0426C3.89142 19.5435 4.26129 20 4.74782 20H6.96429C7.34838 20 7.6763 19.7104 7.73998 19.315L8.36967 15.408C8.47822 14.7345 9.03674 14.2413 9.6909 14.2413H10.2732C13.436 14.2413 16 11.5646 16 8.26266C16 6.98496 15.395 5.85555 14.4685 5.16719Z"
        fill="#0085CC" />
    <path
        d="M6.059 11.1402H7.99214C11.3238 11.1402 14.0721 8.53355 14.4685 5.16719C13.874 4.72555 13.1475 4.46496 12.3623 4.46496H7.31661C6.74214 4.46496 6.25165 4.89805 6.15631 5.48945L5.12765 11.8726C5.24585 11.4436 5.62268 11.1402 6.059 11.1402Z"
        fill="#00186A" />
</svg>
