<svg fill="none" height="100" viewBox="0 0 101 100" width="101" xmlns="http://www.w3.org/2000/svg">
    <rect fill="#FFFAE6" height="100" rx="50" width="100" x="0.5" />
    <g clip-path="url(#clip0_62_417)">
        <path
            d="M73.1926 57.492L72.5184 55.8632L64.7648 37.1351C64.6934 36.9629 64.5565 36.826 64.3843 36.7546L44.0106 28.3174C43.9218 28.2803 43.8262 28.262 43.7299 28.2636C43.6336 28.2652 43.5387 28.2867 43.4511 28.3266C43.3635 28.3664 43.285 28.4238 43.2205 28.4952C43.1559 28.5666 43.1067 28.6505 43.076 28.7417L41.8124 32.4754L29.6477 68.4159L29.6444 68.4272C29.3129 69.4084 29.5615 70.4736 30.2941 71.2062C30.6606 71.5728 31.1102 71.8181 31.5907 71.9301C32.0714 72.0422 32.5832 72.021 33.0737 71.8552L56.1289 64.0565L57.4056 62.7372L63.2738 61.6394L69.036 59.6903L72.7689 58.4274C72.8601 58.3965 72.9439 58.3472 73.0151 58.2825C73.0864 58.2178 73.1436 58.1392 73.1832 58.0515C73.2229 57.9638 73.2443 57.8689 73.2459 57.7727C73.2475 57.6765 73.2293 57.5809 73.1926 57.492Z"
            fill="#F9D11F" />
        <path
            d="M72.769 58.4275L69.036 59.6904L63.2739 61.6394L57.4057 62.7373L56.1289 64.0565L33.0736 71.8553C32.583 72.021 32.0713 72.0422 31.5907 71.9302C31.11 71.8182 30.6606 71.5729 30.294 71.2063C29.5615 70.4737 29.313 69.4083 29.6444 68.4272L29.6476 68.416C30.1377 68.8396 30.7299 69.128 31.3657 69.2527C32.0014 69.3773 32.6587 69.3339 33.2725 69.1267L72.5183 55.8632L73.1925 57.492C73.2292 57.581 73.2473 57.6765 73.2457 57.7727C73.244 57.8689 73.2227 57.9637 73.1831 58.0514C73.1434 58.139 73.0862 58.2176 73.015 58.2823C72.9437 58.347 72.86 58.3964 72.769 58.4275Z"
            fill="#FFA402" />
        <path
            d="M72.769 58.4274L69.0361 59.6903C68.8438 58.8741 68.6174 58.0664 68.3572 57.2692C66.9399 52.923 64.1589 47.6931 58.8761 42.4088C52.5663 36.1029 46.5815 33.6116 41.8389 32.5006L41.8124 32.4754L43.0759 28.7417C43.1067 28.6505 43.1559 28.5666 43.2205 28.4952C43.285 28.4238 43.3635 28.3665 43.4511 28.3266C43.5387 28.2867 43.6336 28.2652 43.7299 28.2636C43.8262 28.262 43.9218 28.2803 44.0106 28.3174L64.3843 36.7546C64.5565 36.826 64.6934 36.9629 64.7648 37.1351L72.5184 55.8632L73.1926 57.492C73.2293 57.5809 73.2475 57.6765 73.2459 57.7727C73.2443 57.8689 73.223 57.9638 73.1833 58.0515C73.1437 58.1392 73.0865 58.2178 73.0152 58.2825C72.9439 58.3472 72.8601 58.3965 72.769 58.4274Z"
            fill="#FDEDA5" />
        <path
            d="M72.769 58.4275L69.036 59.6904C68.8438 58.8742 68.6173 58.0664 68.3572 57.2693L72.5184 55.8632L73.1925 57.492C73.2293 57.581 73.2474 57.6765 73.2458 57.7727C73.2442 57.869 73.2229 57.9639 73.1832 58.0515C73.1436 58.1392 73.0864 58.2179 73.0152 58.2826C72.9439 58.3472 72.8601 58.3966 72.769 58.4275Z"
            fill="#FBDF63" />
        <path
            d="M77.4392 56.7588C76.3945 51.7788 73.4577 44.151 65.4012 36.0943C57.3434 28.0403 49.7145 25.1048 44.7332 24.06C43.2689 23.7531 41.8263 24.6533 41.4465 26.0833C41.4339 26.1317 41.4224 26.1803 41.412 26.2292C41.2575 26.9631 41.3987 27.7116 41.8091 28.3393C41.9155 28.5032 42.0388 28.6554 42.177 28.7934C42.5582 29.1746 43.0414 29.4378 43.5811 29.5506C47.8172 30.4389 54.3523 32.9832 61.4343 40.0614C68.5137 47.1423 71.0594 53.6762 71.9483 57.9104C72.059 58.443 72.3231 58.9315 72.7081 59.3158L72.7087 59.3165C73.3816 59.9893 74.3395 60.2751 75.2696 60.0795C75.3188 60.0692 75.3676 60.0575 75.4161 60.0443C76.087 59.8667 76.6605 59.4536 77.0423 58.8689C77.4526 58.2412 77.5931 57.492 77.4392 56.7588Z"
            fill="#F79E60" />
        <path
            d="M77.4393 56.7588C76.3946 51.7788 73.4578 44.151 65.4013 36.0943C57.3434 28.0403 49.7145 25.1048 44.7333 24.06C43.2689 23.7531 41.8264 24.6533 41.4465 26.0833C41.8704 25.9698 42.3152 25.958 42.7445 26.0488C47.7257 27.0937 55.3546 30.0291 63.4125 38.0831C71.469 46.1398 74.4058 53.7676 75.4506 58.7476C75.5421 59.1838 75.5295 59.626 75.4161 60.0443C76.087 59.8667 76.6604 59.4536 77.0423 58.8689C77.4526 58.2412 77.5932 57.492 77.4393 56.7588Z"
            fill="#D77D41" />
        <path
            d="M51.7606 42.6233C51.7605 41.4409 51.3001 40.3293 50.464 39.493L50.4636 39.4927C48.737 37.7665 45.9277 37.7665 44.2012 39.4927C43.3647 40.3289 42.9041 41.4407 42.9041 42.6234C42.9041 43.8059 43.3646 44.9175 44.2008 45.7537C44.201 45.7539 44.2011 45.754 44.2012 45.7542C45.9278 47.4803 48.7371 47.4803 50.4636 45.7542C51.2999 44.9179 51.7605 43.806 51.7606 42.6233ZM48.0797 53.4131L48.0794 53.4128C46.3528 51.6867 43.5435 51.6867 41.817 53.4128C40.9806 54.2491 40.5199 55.361 40.5199 56.5436C40.5199 57.7261 40.9804 58.8377 41.8166 59.6739C41.8167 59.6741 41.8168 59.6742 41.817 59.6743C43.5436 61.4004 46.3529 61.4004 48.0794 59.6743C48.9159 58.8381 49.3765 57.7263 49.3765 56.5435C49.3765 55.3611 48.916 54.2495 48.0797 53.4131ZM63.2746 61.6401L56.1236 64.0405L55.8154 63.7323C55.2904 63.2072 54.9138 62.5734 54.7057 61.8827C54.5812 61.4672 54.5182 61.0356 54.5187 60.6019C54.5187 59.4192 54.9794 58.3074 55.8154 57.4715C56.6792 56.609 57.8135 56.1774 58.947 56.1774C60.0806 56.1774 61.2149 56.609 62.078 57.4721C62.5347 57.9289 62.8781 58.4646 63.0969 59.0466C63.3514 59.7241 63.4362 60.4626 63.3335 61.2084L63.2746 61.6401Z"
            fill="#ED2061" />
        <path
            d="M63.2746 61.6401L56.1237 64.0406L55.8154 63.7323C55.2904 63.2072 54.9138 62.5735 54.7057 61.8827L63.097 59.0467C63.3515 59.7242 63.4363 60.4627 63.3336 61.2086L63.2746 61.6401Z"
            fill="#C71E54" />
        <path
            d="M40.0939 62.0149C40.0722 61.8649 40.0025 61.726 39.8954 61.6188C39.7882 61.5116 39.6492 61.442 39.4993 61.4203C39.4438 61.4122 38.9384 61.3432 38.2935 61.4036C37.3694 61.49 36.6099 61.8068 36.0968 62.3197C35.5837 62.8327 35.2667 63.5923 35.1803 64.5163C35.1199 65.1612 35.189 65.6663 35.1971 65.7218C35.2194 65.8758 35.2911 66.0133 35.3956 66.1179C35.5002 66.2225 35.6377 66.2941 35.7917 66.3165C35.8471 66.3246 36.3524 66.3935 36.9974 66.3331C37.9215 66.2467 38.6811 65.9299 39.1942 65.417C39.7073 64.904 40.0243 64.1445 40.1107 63.2205C40.171 62.5755 40.102 62.0704 40.0939 62.0149ZM56.2876 54.3974C56.3082 54.3451 56.4906 53.869 56.5789 53.2274C56.7056 52.308 56.5702 51.4962 56.1877 50.8798C55.8051 50.2632 55.1378 49.7816 54.2577 49.4868C53.6434 49.281 53.1358 49.233 53.08 49.2282C52.929 49.2152 52.7778 49.2513 52.649 49.3313C52.5203 49.4112 52.4207 49.5305 52.3653 49.6716C52.3448 49.7237 52.1624 50.1999 52.074 50.8415C51.9475 51.7608 52.0828 52.5726 52.4653 53.1891C52.5754 53.3655 52.7055 53.5285 52.853 53.675C53.2391 54.0611 53.7621 54.37 54.3952 54.582C55.0094 54.7879 55.5171 54.8359 55.5729 54.8407C55.7239 54.8537 55.8751 54.8176 56.0039 54.7377C56.1327 54.6578 56.2322 54.5384 56.2876 54.3974Z"
            fill="#68C044" />
        <path
            d="M43.4786 49.4332L42.4058 47.7608C42.3051 47.6038 42.1462 47.4933 41.964 47.4535C41.7818 47.4137 41.5913 47.4479 41.4343 47.5486C41.2774 47.6493 41.1668 47.8082 41.127 47.9904C41.0872 48.1726 41.1215 48.3631 41.2221 48.5201L42.2949 50.1925C42.3229 50.2361 42.3547 50.2755 42.3899 50.3107C42.5127 50.433 42.6763 50.5058 42.8493 50.5149C43.0224 50.524 43.1928 50.4689 43.3277 50.3601C43.4627 50.2514 43.5527 50.0966 43.5806 49.9255C43.6084 49.7545 43.5721 49.5791 43.4786 49.4332ZM58.4816 47.5724L56.9726 46.2796C56.831 46.1583 56.647 46.0982 56.4611 46.1126C56.2751 46.1269 56.1025 46.2145 55.9812 46.3561C55.8599 46.4977 55.7998 46.6818 55.8141 46.8677C55.8285 47.0536 55.9161 47.2262 56.0577 47.3475L57.5667 48.6403C57.7083 48.7617 57.8923 48.8218 58.0782 48.8074C58.2642 48.7931 58.4368 48.7055 58.5581 48.5639C58.8109 48.269 58.7772 47.8238 58.4816 47.5724ZM52.2428 61.0469L52.432 59.2344C52.4474 59.051 52.3903 58.8688 52.2729 58.7271C52.1555 58.5853 51.9872 58.4952 51.8041 58.4761C51.621 58.457 51.4378 58.5104 51.2937 58.6249C51.1496 58.7394 51.0561 58.9059 51.0333 59.0885L50.8441 60.9011C50.8331 61.0052 50.8456 61.1105 50.8807 61.2093C50.9157 61.308 50.9724 61.3976 51.0466 61.4715C51.1405 61.5654 51.2592 61.6307 51.3887 61.66C51.5183 61.6892 51.6535 61.6811 51.7787 61.6367C51.9038 61.5923 52.0139 61.5133 52.096 61.4089C52.1782 61.3046 52.2291 61.179 52.2428 61.0469Z"
            fill="#FDEDA5" />
    </g>
    <defs>
        <clipPath id="clip0_62_417">
            <rect fill="white" height="48" transform="translate(29.5 24)" width="48" />
        </clipPath>
    </defs>
</svg>
