<svg fill="none" height="21" viewBox="0 0 18 21" width="18" xmlns="http://www.w3.org/2000/svg">
    <path clip-rule="evenodd" d="M0 17.4256V15.9585C0.055451 14.8692 0.710285 13.9004 1.70042 13.4429C6.36954 11.5674 11.5825 11.5674 16.2517 13.4429C17.2418 13.9004 17.8966 14.8692 17.9521 15.9585V17.4256C17.9517 18.2197 17.6356 18.9812 17.0735 19.5422C16.5114 20.1032 15.7494 20.4178 14.9552 20.4166H2.99688C2.20271 20.4178 1.44065 20.1032 0.878545 19.5422C0.316438 18.9812 0.000386172 18.2197 0 17.4256Z"
        fill="#C1C7D0"
        fill-rule="evenodd" />
    <path clip-rule="evenodd" d="M8.97592 2.1473e-07C6.95853 -0.000589665 5.13946 1.2142 4.36703 3.07786C3.5946 4.94151 4.02095 7.08696 5.44725 8.51368C6.87355 9.9404 9.01888 10.3674 10.8828 9.59549C12.7466 8.8236 13.962 7.00489 13.962 4.9875C13.9623 3.66487 13.4372 2.39627 12.5021 1.46089C11.567 0.525514 10.2986 1.58156e-07 8.97592 2.1473e-07Z"
        fill="#C1C7D0"
        fill-rule="evenodd" />
</svg>
