<svg fill="none" height="14" viewBox="0 0 12 14" width="12" xmlns="http://www.w3.org/2000/svg">
    <path clip-rule="evenodd" d="M0.837988 12.579C0.798286 13.088 1.0564 13.5742 1.50032 13.8264C1.94425 14.0787 2.49398 14.0516 2.91099 13.757L6.08399 11.871L9.25399 13.757C9.67153 14.0515 10.2215 14.0785 10.6659 13.8264C11.1104 13.5744 11.3694 13.0885 11.331 12.579V1.75C11.3313 1.28579 11.147 0.840516 10.8187 0.51227C10.4905 0.184024 10.0452 -0.000265204 9.58099 2.86456e-07H2.58699C2.12295 2.10608e-07 1.67793 0.184407 1.3499 0.512624C1.02187 0.840841 0.837722 1.28596 0.837988 1.75V12.579Z"
        fill="#C1C7D0"
        fill-rule="evenodd" />
</svg>
