<svg fill="none" height="100" viewBox="0 0 101 100" width="101" xmlns="http://www.w3.org/2000/svg">
    <rect fill="#FFFAE6" height="100" rx="50" width="100" x="0.5" />
    <path
        d="M62.4993 60.5022C62.4738 59.6322 62.4468 58.9377 62.3426 58.5755L62.1198 57.803L61.4958 58.3085C61.2783 58.4855 61.1051 58.8035 60.9333 59.1185C60.6708 59.6022 60.3738 60.1497 59.8518 60.2607C59.805 60.2705 59.7572 60.2755 59.7093 60.2757C59.4393 60.2757 59.2653 60.0642 58.9803 59.5887C58.7133 59.1425 58.4118 58.6362 57.7781 58.6362C57.6716 58.6362 57.5606 58.6512 57.4391 58.682C57.0646 58.7778 56.6796 58.8267 56.2931 58.8275C54.8621 58.8275 53.7948 58.1532 53.2856 57.7505L52.9271 57.4685L52.5933 57.779C51.0611 59.201 48.6686 59.5325 46.9316 59.5602L46.6308 59.5647L46.4801 59.825C45.7616 61.0602 43.8176 61.592 42.2576 62.0195C41.4926 62.2295 40.7688 62.4282 40.2708 62.6817C39.4676 63.0912 39.8036 64.1645 40.1598 65.3007L40.3241 65.8227L62.5526 61.898L62.5331 61.4315C62.5188 61.1202 62.5083 60.809 62.4993 60.5022ZM72.0798 54.2847C72.0093 54.1287 71.8113 53.8677 71.2938 53.8677C70.9391 53.8677 70.4321 53.987 69.9723 54.1782L69.8913 54.212L69.7451 54.347C69.2591 54.7535 69.4751 55.508 69.8621 56.6127C70.1156 57.335 70.4028 58.154 70.1718 58.5702C70.0878 58.7225 69.9348 58.8222 69.7038 58.8747C69.5876 58.901 69.4788 58.9137 69.3798 58.9137C69.2201 58.9208 69.0627 58.8732 68.9336 58.7787C68.5098 58.4532 68.4761 57.5937 68.4431 56.7627C68.4033 55.7517 68.3456 55.2477 67.9766 54.9777L67.7703 54.8907H67.6556C67.5806 54.8907 67.4981 54.9027 67.4193 54.9252C66.4083 55.1975 66.6011 55.9302 66.7556 56.5182C66.9506 57.266 66.9588 57.653 66.4856 57.9702C66.2823 58.1067 66.0956 58.1757 65.9313 58.1757C65.6403 58.1757 65.3996 57.962 65.1866 57.773C64.9391 57.554 64.6841 57.3275 64.3331 57.3275C64.1261 57.3275 63.9603 57.4092 63.8531 57.4707L63.6911 57.5652L63.6236 57.74C63.4946 58.0745 63.6131 58.5065 64.2911 60.1745C64.4141 60.4745 64.5371 60.7835 64.6556 61.0932L64.8041 61.4795L65.2151 61.4315C65.9298 61.3475 72.2231 60.5862 72.8838 59.519C73.4621 58.3602 72.3033 54.776 72.0798 54.2847ZM38.2968 64.5282C38.2571 63.761 38.2218 63.1955 38.1236 62.9045L37.9983 62.5325L37.6068 62.5422C37.3091 62.549 36.7863 62.7147 36.3993 62.8527C35.9073 63.0267 35.3493 63.224 34.8813 63.224C34.7793 63.224 34.6833 63.215 34.5963 63.1962C34.2213 63.1145 34.1411 62.8302 34.0931 62.1822C34.0608 61.739 34.0196 61.1877 33.5186 61.0572C33.4244 61.032 33.3273 61.0191 33.2298 61.019C32.9973 61.019 32.7911 61.0865 32.5218 61.181C32.3291 61.2485 32.0898 61.3332 31.8273 61.3557L31.6878 61.3745C31.5431 61.3745 31.0406 61.403 30.6693 61.772C30.4016 62.0375 30.2696 62.4117 30.2778 62.885C30.3176 65.5197 30.8831 67.004 31.9586 67.2965C32.1881 67.3587 32.4753 67.3895 32.8368 67.3895C34.3038 67.3895 36.7721 66.8645 37.9998 66.554L38.4491 66.44L38.3988 65.9802C38.351 65.4973 38.317 65.0131 38.2968 64.5282Z"
        fill="#FFA963" />
    <path
        d="M39.439 68.3525C39.226 68.3525 39.0333 68.2873 38.866 68.1605C38.191 67.646 38.0665 66.2225 37.9825 64.553C37.9488 63.8795 37.9015 62.9683 37.756 62.8753C37.707 62.8629 37.6566 62.8571 37.606 62.858C37.3285 62.858 36.931 62.999 36.5103 63.1475C35.989 63.332 35.404 63.539 34.882 63.539C34.7583 63.539 34.6398 63.527 34.531 63.5038C33.8658 63.3598 33.8178 62.7208 33.7788 62.2078C33.7338 61.6003 33.661 61.4188 33.4383 61.3603C33.3712 61.3431 33.3021 61.3345 33.2328 61.3348C33.034 61.3348 32.83 61.4068 32.6328 61.4765C32.359 61.574 32.0553 61.682 31.6675 61.682C31.3128 61.682 30.943 61.5898 30.535 61.4C30.1713 61.2313 29.926 60.9583 29.809 60.59C29.5225 59.6908 30.0933 58.469 30.2748 58.1165L30.463 57.7483L30.868 57.8413C31.0143 57.875 31.093 57.8938 31.18 57.9043C31.2798 57.9155 31.3728 57.9215 31.4613 57.9215C32.2548 57.9215 32.5188 57.4753 32.7528 57.0815C32.9425 56.7628 33.1203 56.462 33.5155 56.462C34.2153 56.5333 34.2513 57.1018 34.2798 57.5578C34.315 58.106 34.372 58.5118 34.7913 58.7428C34.8957 58.8056 35.0145 58.8407 35.1363 58.8448C35.2765 58.8448 35.4258 58.7825 35.5938 58.6535L35.9193 58.403L36.2433 58.655C36.7818 59.0705 38.311 60.0373 40.8768 60.0373C41.731 60.0373 42.6273 59.9263 43.5408 59.7073C43.8805 59.6255 44.1933 59.5423 44.488 59.4568L44.5638 59.435L44.767 59.4485C44.944 59.474 46.1133 58.0573 46.7583 58.0828L47.1955 59.5978L46.4208 60.4453C45.493 61.4593 43.753 61.9363 42.355 62.3203C41.596 62.528 40.8843 62.723 40.4148 62.9623C39.9325 63.2075 40.0383 63.8585 40.4373 65.135C40.732 66.0725 41.0365 67.0438 40.657 67.7C40.4755 68.015 40.1643 68.2175 39.7053 68.321C39.6179 68.341 39.5286 68.352 39.439 68.3525Z"
        fill="#F9C900" />
    <path
        d="M72.0776 54.2825C72.0101 54.1325 71.8151 53.87 71.2901 53.87C71.0426 53.87 70.7276 53.93 70.3976 54.0275C70.7801 55.7525 70.9226 57.41 70.2476 58.025C70.2701 58.2425 70.2476 58.43 70.1726 58.5725C70.0901 58.7225 69.9326 58.82 69.7076 58.8725C69.5876 58.9025 69.4751 58.9175 69.3776 58.9175C69.2178 58.9246 69.0607 58.874 68.9351 58.775C68.8504 58.7112 68.7812 58.6292 68.7326 58.535C67.6901 58.79 66.0701 59.1725 64.0676 59.615C64.1351 59.7875 64.2101 59.975 64.2926 60.1775C64.4126 60.4775 64.5401 60.785 64.6526 61.0925L64.8026 61.4825L65.2151 61.43C65.9276 61.3475 72.2201 60.5825 72.8801 59.5175C73.4651 58.3625 72.3026 54.7775 72.0776 54.2825ZM62.5001 60.5C62.4926 60.32 62.4851 60.14 62.4851 59.975C56.2151 61.3625 47.2226 63.26 40.2701 64.5575C40.3151 64.7375 40.3676 64.925 40.4351 65.135C40.5026 65.345 40.5701 65.5625 40.6301 65.7725L62.5526 61.895L62.5301 61.43C62.5226 61.1225 62.5076 60.8075 62.5001 60.5ZM30.7526 66.02C31.0301 66.725 31.4351 67.145 31.9601 67.295C32.1851 67.3625 32.4776 67.3925 32.8376 67.3925C34.3076 67.3925 36.7751 66.8675 37.9976 66.5525L38.1551 66.515C38.0801 66.0575 38.0351 65.5325 38.0051 64.97C34.6901 65.5625 32.0501 65.9675 30.7526 66.02Z"
        fill="#F49853" />
    <path
        d="M63.9497 65.2055C63.6752 65.2055 63.439 65.1305 63.2275 64.9737C62.365 64.3377 62.245 62.579 62.1835 60.5165C62.158 59.594 62.131 58.64 61.9435 58.4675C61.681 58.4697 61.516 58.7052 61.213 59.264C60.9167 59.81 60.5807 60.4272 59.9147 60.569C59.8525 60.5825 59.7865 60.5907 59.7212 60.5907C59.2135 60.5907 58.9577 60.1632 58.7102 59.7507C58.429 59.282 58.198 58.9512 57.7825 58.9512C57.6921 58.9524 57.6022 58.9645 57.5147 58.9872C57.116 59.0891 56.7061 59.141 56.2945 59.1417C55.1777 59.1417 54.274 58.7502 53.713 58.4217L52.12 57.3162L53.9792 57.4295C55.5362 57.422 56.8885 57.1122 57.997 56.5077L58.1207 56.4402L58.4537 56.4455C59.6477 56.4455 63.6887 56.2362 65.4737 53.5505L65.5847 53.387L65.7737 53.333C66.112 53.2385 66.3445 53.1005 66.4847 52.9092C66.7975 52.4847 66.6565 51.8457 66.5432 51.3335C66.5115 51.1946 66.484 51.0548 66.4607 50.9142L66.2927 49.7712L67.2707 50.3855C67.399 50.4657 67.5745 50.6067 67.7027 50.7132C68.0762 51.02 68.539 51.401 69.121 51.401C69.511 51.401 69.9362 51.2262 70.3855 50.8805C70.4132 50.8505 70.438 50.8272 70.4672 50.8032L71.0867 50.2887L71.3162 51.0627C71.6642 52.2372 71.2562 53.3975 70.1372 54.4167L70.0352 54.4977L69.9452 54.5907C69.6182 54.8675 69.838 55.5905 70.159 56.507C70.5032 57.4895 70.7252 58.2222 70.4477 58.7232C70.3157 58.9595 70.0952 59.1095 69.7727 59.1815C69.6347 59.213 69.5027 59.2295 69.3805 59.2295C69.0055 59.2295 68.809 59.0795 68.7437 59.03C68.2015 58.613 68.1625 57.6387 68.1287 56.7785C68.1017 56.1155 68.0747 55.4382 67.8265 55.256C67.7758 55.2214 67.7153 55.204 67.654 55.2065C67.602 55.2072 67.5503 55.2147 67.5002 55.229C66.8575 55.403 66.8702 55.7142 67.0592 56.4372C67.2107 57.017 67.399 57.7355 66.661 58.232C66.3962 58.4097 66.1637 58.493 65.9275 58.493C65.524 58.493 65.2615 58.2597 64.9825 58.013C64.7935 57.845 64.5617 57.6402 64.333 57.6402C64.2355 57.6402 64.1305 57.674 64.012 57.743C63.7127 57.917 64.1732 59.0495 64.5797 60.0485C65.2082 61.5927 65.917 63.3297 65.4032 64.3752C65.2187 64.7502 64.8895 65.0052 64.4237 65.1357C64.2696 65.1801 64.1102 65.2036 63.9497 65.2055Z"
        fill="#F9C900" />
    <path
        d="M59.0515 55.7788C59.2007 55.649 59.3477 55.5148 59.4865 55.3655L59.6215 55.2193L59.8187 55.1983C60.211 55.1555 60.5087 55.0235 60.7292 54.7955C61.1935 54.3125 61.2017 53.54 61.1845 53.231L61.1695 53.003L61.3262 52.8358C61.5287 52.6205 61.642 52.3168 61.7417 52.0258C61.8767 51.6283 61.9532 51.4408 62.1257 51.3133L62.1482 51.2968L62.233 51.248L62.35 51.2158L62.4962 51.1993C62.9965 51.1993 63.1922 51.6463 63.3992 52.1195C63.715 52.844 64.0247 53.4013 64.8932 53.4395L66.0295 53.4905L65.2637 54.3305C63.6362 56.117 60.9205 56.588 59.446 56.711L57.8282 56.8445L59.0515 55.7788Z"
        fill="#A02E14" />
    <path
        d="M53.9178 57.7317C52.0653 57.7317 50.3906 57.3342 49.5558 57.0972L48.8823 56.906L49.2468 56.3075C49.4456 55.9827 49.3436 55.5462 49.2536 55.1615C49.1238 54.611 49.0646 54.3597 49.1913 54.1227L49.3563 53.8137L49.7043 53.8422C49.8971 53.8572 50.0703 53.9547 50.4618 54.221C50.7828 54.4385 51.2658 54.7662 51.7496 54.7662C51.8418 54.7662 51.9333 54.7542 52.0211 54.731L52.2476 54.6687L52.4471 54.7947C52.6421 54.92 53.1626 55.2095 53.7521 55.2095C53.8796 55.2095 54.0056 55.1952 54.1241 55.1675C54.6491 55.0475 55.0841 54.662 55.4201 54.023C55.7201 53.4492 55.9953 53.1762 56.3111 53.1387H56.3133C56.7558 53.1387 57.0461 53.4507 57.4826 53.9585C57.8966 54.4385 58.3638 54.98 58.9863 55.1532L59.9591 55.4232L59.1866 56.0735C58.8656 56.3435 58.5633 56.558 58.2611 56.729C57.0783 57.3942 55.6173 57.7317 53.9178 57.7317Z"
        fill="#F40B1C" />
    <path
        d="M59.5645 55.535C59.4535 55.535 59.3395 55.5298 59.218 55.5163C58.333 55.4263 57.73 54.728 57.2455 54.1663C56.956 53.8295 56.6297 53.4508 56.3777 53.4508C56.1715 53.4733 55.9375 53.7155 55.699 54.1678C55.3202 54.8915 54.8162 55.3303 54.202 55.4728C54.0595 55.5065 53.9087 55.523 53.755 55.523C53.4235 55.523 53.0762 55.445 52.7215 55.292L51.964 54.9643L52.5745 54.4093C52.6267 54.3625 52.6767 54.3135 52.7245 54.2623C53.0342 53.9255 53.1572 53.5783 53.0897 53.2295C52.984 52.676 52.4462 52.2035 52.0142 51.9058L51.0002 51.2053L52.204 50.9473C54.2957 50.4973 56.5345 50.009 58.6975 49.5253L59.8007 49.2785L59.2885 50.2865C59.0848 50.7053 59.0161 51.177 59.092 51.6365C59.2307 52.481 59.7632 53.0803 60.418 53.1275C60.5618 53.1379 60.7064 53.1268 60.847 53.0945L61.5467 52.94L61.4927 53.654C61.4507 54.2323 61.2677 54.6905 60.9527 55.0168C60.619 55.361 60.1517 55.535 59.5645 55.535Z"
        fill="#599306" />
    <path
        d="M46.267 59.8693L44.053 59.5903L46.18 58.8508C47.971 58.058 48.2095 57.296 48.2387 57.1513L48.301 56.8528L48.589 56.7545C48.6563 56.7322 48.7224 56.7064 48.787 56.6773L48.982 56.5858L49.1852 56.6555C49.324 56.7035 50.5802 57.128 52.2602 57.3283L53.5277 57.479L52.5287 58.274C50.8675 59.5948 48.4172 59.8723 46.6532 59.8723L46.267 59.8693Z"
        fill="#A02E14" />
    <path
        d="M40.9128 60.3463C38.353 60.3463 36.727 59.3863 36.1465 58.9738L35.6763 58.6393L36.1285 58.1023C36.436 57.737 36.6588 57.491 36.94 57.4048L37.03 57.3823L37.1275 57.3755C37.4418 57.3755 37.7103 57.566 38.0215 57.788C38.4213 58.0715 38.8713 58.391 39.4068 58.391C39.6715 58.391 39.9393 58.316 40.2258 58.1623C40.4673 58.031 40.6698 57.8278 40.8258 57.5608L41.1168 57.0583L41.5923 57.3928C41.8938 57.6058 42.3745 57.8585 42.9483 57.8585C43.2505 57.8585 43.5505 57.7858 43.8423 57.6425C44.5398 57.2998 44.557 56.8288 44.5075 56.249L44.5038 56.204L44.8285 55.6093L45.4495 55.8268L45.5575 55.994C45.8275 56.423 46.1628 56.954 47.2855 56.954C47.4408 56.954 47.6095 56.9443 47.791 56.9225L48.9933 56.7778L48.2875 57.7618C47.8398 58.3858 46.666 59.2835 43.615 60.014C42.6925 60.2345 41.7828 60.3463 40.9128 60.3463Z"
        fill="#F40B1C" />
    <path
        d="M42.9452 58.1713C42.0977 58.1713 41.4587 57.7085 41.224 57.5098L40.972 57.2953L41.0507 56.9743C41.242 56.0308 40.921 54.8068 40.5047 54.089L40.1312 53.444L40.861 53.2993C43.7811 52.7171 46.6977 52.1171 49.6105 51.4993L51.3685 51.1265L51.5597 51.2615C52.1845 51.5938 53.2262 52.2703 53.3987 53.1695C53.4857 53.6233 53.3372 54.062 52.9562 54.476C52.5782 54.887 52.18 55.0865 51.739 55.0865C51.2215 55.0865 50.7557 54.8 50.284 54.482C50.092 54.3508 49.801 54.1528 49.6517 54.1528C49.4147 54.3305 49.438 54.5713 49.5587 55.088C49.6667 55.5485 49.789 56.0705 49.4965 56.5085C49.2632 56.8603 48.799 57.0898 48.0767 57.2105C47.7812 57.2593 47.5082 57.2848 47.2637 57.2848C45.9985 57.2848 45.5785 56.6188 45.301 56.1778C45.1112 55.8755 45.0385 55.8028 44.926 55.8028C44.869 55.8058 44.8412 55.8178 44.836 55.8253C44.791 55.8763 44.8082 56.0743 44.821 56.2183C44.863 56.7133 44.9275 57.461 43.981 57.926C43.6592 58.0863 43.3047 58.1703 42.9452 58.1713ZM64.978 53.765C63.7735 53.765 63.409 52.9295 63.115 52.2583C62.89 51.7423 62.7527 51.5128 62.53 51.5128C62.4811 51.5134 62.4325 51.5199 62.3852 51.5323C62.2405 51.569 62.1505 51.8008 62.0402 52.1248C61.8505 52.6835 61.5902 53.4493 60.5627 53.4493C60.5087 53.4493 60.4532 53.447 60.394 53.4418C59.467 53.3743 58.9165 52.5118 58.7815 51.6875C58.6345 50.7815 58.939 49.676 59.9537 49.2523C65.059 48.0913 68.2562 47.303 69.481 46.9033L69.7765 46.8058L70.0067 47.0173C70.345 47.3285 71.4482 48.4378 71.4137 49.637C71.3957 50.213 71.1145 50.7155 70.5775 51.1295C70.0705 51.521 69.5935 51.7115 69.1195 51.7115C68.4197 51.7115 67.9315 51.3095 67.5017 50.9548C67.2655 50.762 67.0247 50.564 66.8695 50.564C66.781 50.579 66.703 50.5978 66.8507 51.2653C66.9782 51.8405 67.1357 52.5568 66.7382 53.0968C66.4592 53.4763 65.962 53.6915 65.2172 53.7538C65.1347 53.7613 65.0545 53.765 64.978 53.765Z"
        fill="#77A505" />
    <path
        d="M35.1341 59.1545C34.9601 59.1523 34.7896 59.1053 34.6391 59.018C34.0368 58.6872 33.9978 58.073 33.9663 57.578C33.9251 56.9232 33.8328 56.8092 33.5561 56.7792C33.3251 56.78 33.2186 56.915 33.0348 57.224C32.7813 57.6515 32.4348 58.2365 31.4658 58.2365C31.3683 58.2365 31.2618 58.2305 31.1456 58.2177C30.4338 58.136 29.9096 57.8592 29.5856 57.3942C29.1348 56.7447 29.2143 55.9167 29.2691 55.592L29.3426 55.1645L29.7761 55.1495C31.1418 55.1007 34.6061 54.5315 40.0706 53.456L40.3901 53.3937L40.5911 53.6487C40.9811 54.14 41.6328 55.6805 41.3711 57.0102C41.2421 57.6627 40.8971 58.1562 40.3736 58.439C40.0421 58.619 39.7233 58.7067 39.4008 58.7067C38.7716 58.7067 38.2968 58.3692 37.8776 58.0722C37.6136 57.8847 37.3421 57.6897 37.1351 57.6897C37.1002 57.6897 37.0656 57.6951 37.0323 57.7055C36.8193 57.7715 36.5913 58.043 36.3708 58.3055C35.9523 58.802 35.6178 59.1545 35.1333 59.1545H35.1341Z"
        fill="#599306" />
    <path
        d="M29.9508 47.8228C33.7631 43.142 42.8441 32.24 44.6756 31.6678C44.7881 31.6333 44.9171 31.6168 45.0708 31.6168C48.0663 31.6168 65.2383 38.7125 68.4933 41.0068L69.1623 41.5505L68.3238 41.9578C66.5351 42.4325 57.1586 44.9008 48.1976 46.8905C39.3131 48.863 30.4863 50.4388 28.8078 50.735L27.9288 50.537C27.9288 50.537 29.0358 48.947 29.9508 47.8228Z"
        fill="#FCC683" />
    <path
        d="M69.16 41.5475L68.32 41.96C66.535 42.4325 57.16 44.9 48.1975 46.8875C39.31 48.86 30.49 50.4425 28.81 50.735L27.9325 50.54C27.9325 50.54 28.4425 49.7975 29.0575 48.9725C32.785 48.2675 37.9 47.2625 43.03 46.1225C51.67 44.2025 60.7 41.84 62.935 41.2475C63.085 41.21 63.22 41.1575 63.355 41.09L63.9925 40.7825L63.4075 40.31C63.3475 40.265 63.3025 40.2275 63.2425 40.1825C60.6325 38.405 50.335 33.9875 44.185 31.9325C44.38 31.7975 44.545 31.7075 44.6725 31.67C44.785 31.6325 44.92 31.6175 45.07 31.6175C48.0625 31.6175 65.2375 38.7125 68.4925 41.0075L69.16 41.5475Z"
        fill="#F7BE7F" />
    <path
        d="M29.7663 55.5373C29.629 55.5373 29.5053 55.5245 29.3898 55.499L29.2885 55.469C28.708 55.127 28.2625 54.2743 28.0128 53.0975C27.8493 52.3288 27.8005 51.569 27.877 50.9585L27.9295 50.537L28.357 50.4695C28.4298 50.4575 38.122 48.8045 48.13 46.583C55.8378 44.8723 63.7075 42.8443 66.9978 41.981C67.9255 41.738 69.1623 41.5505 69.1623 41.5505L69.2695 41.8055C70.3225 43.913 71.242 46.1818 70.069 47.0098C69.6078 47.3353 68.9868 47.4718 68.44 47.5918C68.2773 47.627 68.1235 47.6608 67.9863 47.6975C66.5845 48.0725 65.1858 48.404 63.8725 48.7115C59.9485 49.6333 56.0673 50.4665 52.4575 51.2308C49.4883 51.8608 46.393 52.4983 43.2573 53.126C40.7367 53.634 38.2121 54.122 35.6838 54.59L35.3388 54.6538C33.8073 54.9358 32.239 55.2253 30.6813 55.4285C30.6093 55.4375 30.532 55.451 30.4533 55.4638C30.244 55.4983 30.0078 55.5373 29.7663 55.5373Z"
        fill="#FFA963" />
    <path
        d="M70.0675 47.0075C69.61 47.3375 68.9875 47.4725 68.44 47.5925C68.275 47.63 68.125 47.66 67.99 47.6975C66.5875 48.0725 65.185 48.4025 63.8725 48.71C59.95 49.6325 56.065 50.465 52.4575 51.23C49.4875 51.86 46.39 52.4975 43.255 53.1275C40.27 53.7275 37.8625 54.1925 35.6875 54.59L35.3425 54.65C33.805 54.935 32.2375 55.2275 30.685 55.43C30.61 55.4375 30.535 55.4525 30.4525 55.46C30.2425 55.4975 30.01 55.535 29.77 55.535C29.6275 55.535 29.5075 55.5275 29.3875 55.4975L29.29 55.4675C29.0125 55.31 28.765 55.0325 28.5625 54.6575L28.7275 54.635C28.81 54.62 28.885 54.605 28.96 54.5975C30.5125 54.395 32.0875 54.1025 33.6175 53.825L33.9625 53.7575C36.1375 53.36 38.545 52.895 41.53 52.295C44.6725 51.665 47.7625 51.0275 50.7325 50.3975C54.34 49.64 58.225 48.8 62.1475 47.885C63.46 47.5775 64.8625 47.24 66.265 46.865C66.4 46.8275 66.5575 46.7975 66.715 46.76C67.2625 46.64 67.885 46.505 68.3425 46.1825C69.3775 45.455 68.7925 43.625 67.93 41.765C68.5825 41.6375 69.16 41.5475 69.16 41.5475L69.2725 41.8025C70.3225 43.91 71.245 46.1825 70.0675 47.0075Z"
        fill="#F49853" />
</svg>
