<svg fill="none" height="14" viewBox="0 0 14 14" width="14" xmlns="http://www.w3.org/2000/svg">
    <path clip-rule="evenodd" d="M7.25712 0.0669942L12.6421 2.05399C13.0666 2.20942 13.3492 2.61296 13.3501 3.06499V6.04699C13.4553 9.86914 10.8032 13.216 7.05812 13.987C6.94555 14.0057 6.83068 14.0057 6.71812 13.987C2.97307 13.216 0.320902 9.86914 0.426119 6.04699V3.06499C0.425805 2.615 0.704795 2.21206 1.12612 2.05399L6.51112 0.0669942C6.75183 -0.0219652 7.01641 -0.0219652 7.25712 0.0669942ZM6.69512 8.84399L9.70812 5.56899L9.71612 5.57299C9.88135 5.36649 9.92387 5.08753 9.82765 4.84118C9.73144 4.59483 9.51111 4.41853 9.24965 4.37868C8.9882 4.33883 8.72535 4.44149 8.56012 4.64799L6.06012 7.27699L5.16012 6.37699C4.871 6.08787 4.40224 6.08787 4.11312 6.37699C3.824 6.66612 3.824 7.13487 4.11312 7.42399L5.59412 8.89999C5.7323 9.0399 5.92048 9.11906 6.11712 9.11999H6.15812C6.36835 9.10903 6.56383 9.00856 6.69512 8.84399Z"
        fill="#00875A"
        fill-rule="evenodd" />
</svg>
