<svg fill="none" height="14" viewBox="0 0 12 14" width="12" xmlns="http://www.w3.org/2000/svg">
    <path clip-rule="evenodd" d="M8.56 5.91397H7.046V3.86197H10.023C10.6113 3.84994 11.079 3.36431 11.069 2.77597C11.079 2.18763 10.6113 1.70201 10.023 1.68997H7.046V1.08997C7.0578 0.708381 6.86095 0.350616 6.53231 0.156333C6.20367 -0.0379507 5.79533 -0.0379507 5.46669 0.156333C5.13804 0.350616 4.9412 0.708381 4.953 1.08997V1.68997H3.475C1.66793 1.65197 0.170684 3.08304 0.126999 4.88997C0.170684 6.69691 1.66793 8.12797 3.475 8.08997H4.953V10.142H1.978C1.39633 10.1669 0.937614 10.6458 0.937614 11.228C0.937614 11.8102 1.39633 12.289 1.978 12.314H4.953V12.914C4.9412 13.2956 5.13804 13.6533 5.46669 13.8476C5.79533 14.0419 6.20367 14.0419 6.53231 13.8476C6.86095 13.6533 7.0578 13.2956 7.046 12.914V12.314H8.56C10.3576 12.343 11.8396 10.9115 11.873 9.11397C11.8396 7.31641 10.3576 5.88499 8.56 5.91397ZM9.782 9.11397C9.71479 9.72757 9.17589 10.1792 8.56 10.138H7.046V8.08597H8.56C9.17659 8.04487 9.71578 8.49758 9.782 9.11197V9.11397ZM3.475 3.86197H4.953V5.91397H3.475C2.84922 5.96261 2.29571 5.51082 2.218 4.88797C2.29571 4.26513 2.84922 3.81334 3.475 3.86197Z"
        fill="#C1C7D0"
        fill-rule="evenodd" />
</svg>
